<?xml version="1.0" encoding="UTF-8" standalone="no"?>
<!-- Created with Inkscape (http://www.inkscape.org/) -->

<svg
   xmlns:osb="http://www.openswatchbook.org/uri/2009/osb"
   xmlns:dc="http://purl.org/dc/elements/1.1/"
   xmlns:cc="http://creativecommons.org/ns#"
   xmlns:rdf="http://www.w3.org/1999/02/22-rdf-syntax-ns#"
   xmlns:svg="http://www.w3.org/2000/svg"
   xmlns="http://www.w3.org/2000/svg"
   xmlns:sodipodi="http://sodipodi.sourceforge.net/DTD/sodipodi-0.dtd"
   xmlns:inkscape="http://www.inkscape.org/namespaces/inkscape"
   width="494.99988"
   height="380.00006"
   viewBox="0 0 130.96873 100.54169"
   version="1.1"
   id="svg8"
   inkscape:version="0.92.2 5c3e80d, 2017-08-06"
   sodipodi:docname="CompMix8_Strip.svg">
  <defs
     id="defs2">
    <linearGradient
       id="linearGradient1876"
       osb:paint="solid">
      <stop
         style="stop-color:#b3b3b3;stop-opacity:1;"
         offset="0"
         id="stop1874" />
    </linearGradient>
  </defs>
  <sodipodi:namedview
     id="base"
     pagecolor="#ffffff"
     bordercolor="#666666"
     borderopacity="1.0"
     inkscape:pageopacity="0.0"
     inkscape:pageshadow="2"
     inkscape:zoom="2.5"
     inkscape:cx="96.37766"
     inkscape:cy="58.329"
     inkscape:document-units="mm"
     inkscape:current-layer="layer1"
     showgrid="false"
     units="px"
     inkscape:snap-bbox="true"
     inkscape:snap-page="true"
     inkscape:bbox-nodes="true"
     inkscape:snap-bbox-edge-midpoints="true"
     inkscape:window-width="1280"
     inkscape:window-height="699"
     inkscape:window-x="0"
     inkscape:window-y="1"
     inkscape:window-maximized="1"
     inkscape:measure-start="0,0"
     inkscape:measure-end="0,0"
     inkscape:snap-grids="true"
     inkscape:snap-global="false" />
  <metadata
     id="metadata5">
    <rdf:RDF>
      <cc:Work
         rdf:about="">
        <dc:format>image/svg+xml</dc:format>
        <dc:type
           rdf:resource="http://purl.org/dc/dcmitype/StillImage" />
        <dc:title />
      </cc:Work>
    </rdf:RDF>
  </metadata>
  <g
     inkscape:label="Layer 1"
     inkscape:groupmode="layer"
     id="layer1"
     transform="translate(6.5389883,-195.92914)">
    <path
       style="opacity:1;vector-effect:none;fill:#c8c4b7;fill-opacity:1;fill-rule:evenodd;stroke:none;stroke-width:1.13993692;stroke-linecap:butt;stroke-linejoin:round;stroke-miterlimit:4;stroke-dasharray:none;stroke-dashoffset:0;stroke-opacity:1;paint-order:normal"
       d="M -6.5389883,195.92914 H 124.42973 V 296.47082 H -6.5389883 Z"
       id="rect817"
       inkscape:connector-curvature="0" />
    <rect
       style="fill:#666666;fill-opacity:1;stroke:none;stroke-width:0.23452805;stroke-opacity:1"
       id="rect4914"
       width="0.33408689"
       height="2.2049735"
       x="14.886505"
       y="216.72743" />
    <rect
       y="216.72743"
       x="30.761497"
       height="2.2049735"
       width="0.33408689"
       id="rect4902"
       style="fill:#666666;fill-opacity:1;stroke:none;stroke-width:0.23452805;stroke-opacity:1" />
    <rect
       style="fill:#666666;fill-opacity:1;stroke:none;stroke-width:0.23452805;stroke-opacity:1"
       id="rect4918"
       width="0.33408689"
       height="2.2049735"
       x="30.761497"
       y="216.72743" />
    <rect
       y="226.25246"
       x="46.636501"
       height="2.2049735"
       width="0.33408689"
       id="rect4938"
       style="fill:#666666;fill-opacity:1;stroke:none;stroke-width:0.23452805;stroke-opacity:1" />
    <rect
       y="216.72743"
       x="6.9490075"
       height="2.2049735"
       width="0.33408689"
       id="rect4912"
       style="fill:#666666;fill-opacity:1;stroke:none;stroke-width:0.23452805;stroke-opacity:1" />
    <rect
       style="fill:#e3e2db;fill-opacity:1;stroke:#000000;stroke-width:0.15950201;stroke-opacity:0.71065991"
       id="rect1872"
       width="7.9374409"
       height="93.538818"
       x="3.2452428"
       y="200.08763" />
    <rect
       y="200.08763"
       x="19.120125"
       height="93.538818"
       width="7.9374409"
       id="rect1884"
       style="fill:#e3e2db;fill-opacity:1;stroke:#000000;stroke-width:0.15950201;stroke-opacity:0.71065991" />
    <rect
       style="fill:#e3e2db;fill-opacity:1;stroke:#000000;stroke-width:0.15950201;stroke-opacity:0.71065991"
       id="rect1888"
       width="7.9374409"
       height="93.538818"
       x="34.995003"
       y="200.08763" />
    <rect
       y="200.08763"
       x="50.869888"
       height="93.538818"
       width="7.9374409"
       id="rect1892"
       style="fill:#e3e2db;fill-opacity:1;stroke:#000000;stroke-width:0.15950201;stroke-opacity:0.71065991" />
    <g
       aria-label="L"
       style="font-style:normal;font-variant:normal;font-weight:bold;font-stretch:normal;font-size:1.05833328px;line-height:1.25;font-family:sans-serif;-inkscape-font-specification:'sans-serif Bold';letter-spacing:0px;word-spacing:0px;fill:#333333;fill-opacity:1;stroke:none;stroke-width:0.26458332"
       id="text2045">
      <path
         d="m 5.0767249,252.03548 h 0.1989543 v 0.62115 h 0.3493327 v 0.15038 h -0.548287 z"
         style="font-style:normal;font-variant:normal;font-weight:bold;font-stretch:normal;font-size:1.05833328px;font-family:sans-serif;-inkscape-font-specification:'sans-serif Bold';fill:#333333;stroke-width:0.26458332"
         id="path7286" />
    </g>
    <g
       aria-label="R"
       style="font-style:normal;font-variant:normal;font-weight:bold;font-stretch:normal;font-size:1.41111112px;line-height:1.25;font-family:sans-serif;-inkscape-font-specification:'sans-serif Bold';letter-spacing:0px;word-spacing:0px;fill:#333333;fill-opacity:1;stroke:none;stroke-width:0.26458332"
       id="text2049">
      <path
         d="m 9.0264616,252.38734 q 0.062529,0 0.0894,-0.0232 0.027389,-0.0233 0.027389,-0.0765 0,-0.0527 -0.027389,-0.0754 -0.026872,-0.0227 -0.0894,-0.0227 h -0.083716 v 0.19792 z m -0.083716,0.13746 v 0.29197 H 8.7437915 v -0.77153 h 0.3038574 q 0.1524455,0 0.2232422,0.0512 0.071314,0.0512 0.071314,0.16175 0,0.0765 -0.037207,0.12557 -0.03669,0.0491 -0.1111043,0.0724 0.040824,0.009 0.072864,0.0424 0.032556,0.0326 0.065629,0.0992 l 0.1080038,0.21911 H 9.2285164 l -0.094051,-0.19172 q -0.028422,-0.0579 -0.057878,-0.0791 -0.028939,-0.0212 -0.077515,-0.0212 z"
         style="font-style:normal;font-variant:normal;font-weight:bold;font-stretch:normal;font-size:1.05833328px;font-family:sans-serif;-inkscape-font-specification:'sans-serif Bold';fill:#333333;stroke-width:0.26458332"
         id="path7283" />
    </g>
    <rect
       style="fill:#666666;fill-opacity:1;stroke:none;stroke-width:0.23452805;stroke-opacity:1"
       id="rect4928"
       width="0.33408689"
       height="2.2049735"
       x="6.9490075"
       y="226.25246" />
    <rect
       style="fill:#666666;fill-opacity:1;stroke:none;stroke-width:0.23452805;stroke-opacity:1"
       id="rect4896"
       width="0.33408689"
       height="2.2049735"
       x="6.9490075"
       y="216.72743" />
    <rect
       y="206.14409"
       x="6.9490075"
       height="2.2049735"
       width="0.33408689"
       id="rect4860"
       style="fill:#666666;fill-opacity:1;stroke:none;stroke-width:0.23452805;stroke-opacity:1" />
    <g
       aria-label="L"
       style="font-style:normal;font-variant:normal;font-weight:bold;font-stretch:normal;font-size:1.05833328px;line-height:1.25;font-family:sans-serif;-inkscape-font-specification:'sans-serif Bold';letter-spacing:0px;word-spacing:0px;fill:#333333;fill-opacity:1;stroke:none;stroke-width:0.26458332"
       id="text2350">
      <path
         d="m 13.014224,252.03548 h 0.198954 v 0.62115 h 0.349333 v 0.15038 h -0.548287 z"
         style="font-style:normal;font-variant:normal;font-weight:bold;font-stretch:normal;font-size:1.05833328px;font-family:sans-serif;-inkscape-font-specification:'sans-serif Bold';fill:#333333;stroke-width:0.26458332"
         id="path7280" />
    </g>
    <g
       aria-label="R"
       style="font-style:normal;font-variant:normal;font-weight:bold;font-stretch:normal;font-size:1.41111112px;line-height:1.25;font-family:sans-serif;-inkscape-font-specification:'sans-serif Bold';letter-spacing:0px;word-spacing:0px;fill:#333333;fill-opacity:1;stroke:none;stroke-width:0.26458332"
       id="text2354">
      <path
         d="m 16.963961,252.38734 q 0.06253,0 0.0894,-0.0232 0.02739,-0.0233 0.02739,-0.0765 0,-0.0527 -0.02739,-0.0754 -0.02687,-0.0227 -0.0894,-0.0227 h -0.08372 v 0.19792 z m -0.08372,0.13746 v 0.29197 h -0.198954 v -0.77153 h 0.303857 q 0.152445,0 0.223242,0.0512 0.07131,0.0512 0.07131,0.16175 0,0.0765 -0.03721,0.12557 -0.03669,0.0491 -0.111105,0.0724 0.04082,0.009 0.07286,0.0424 0.03256,0.0326 0.06563,0.0992 l 0.108004,0.21911 h -0.211874 l -0.09405,-0.19172 q -0.02842,-0.0579 -0.05788,-0.0791 -0.02894,-0.0212 -0.07751,-0.0212 z"
         style="font-style:normal;font-variant:normal;font-weight:bold;font-stretch:normal;font-size:1.05833328px;font-family:sans-serif;-inkscape-font-specification:'sans-serif Bold';fill:#333333;stroke-width:0.26458332"
         id="path7277" />
    </g>
    <rect
       y="226.25246"
       x="14.886505"
       height="2.2049735"
       width="0.33408689"
       id="rect4930"
       style="fill:#666666;fill-opacity:1;stroke:none;stroke-width:0.23452805;stroke-opacity:1" />
    <rect
       y="216.72743"
       x="14.886505"
       height="2.2049735"
       width="0.33408689"
       id="rect4898"
       style="fill:#666666;fill-opacity:1;stroke:none;stroke-width:0.23452805;stroke-opacity:1" />
    <rect
       style="fill:#666666;fill-opacity:1;stroke:none;stroke-width:0.23452805;stroke-opacity:1"
       id="rect4864"
       width="0.33408689"
       height="2.2049735"
       x="14.886505"
       y="206.14409" />
    <g
       aria-label="L"
       style="font-style:normal;font-variant:normal;font-weight:bold;font-stretch:normal;font-size:1.05833328px;line-height:1.25;font-family:sans-serif;-inkscape-font-specification:'sans-serif Bold';letter-spacing:0px;word-spacing:0px;fill:#333333;fill-opacity:1;stroke:none;stroke-width:0.26458332"
       id="text2470">
      <path
         d="m 20.951722,252.03548 h 0.198954 v 0.62115 h 0.349333 v 0.15038 h -0.548287 z"
         style="font-style:normal;font-variant:normal;font-weight:bold;font-stretch:normal;font-size:1.05833328px;font-family:sans-serif;-inkscape-font-specification:'sans-serif Bold';fill:#333333;stroke-width:0.26458332"
         id="path7274" />
    </g>
    <g
       aria-label="R"
       style="font-style:normal;font-variant:normal;font-weight:bold;font-stretch:normal;font-size:1.41111112px;line-height:1.25;font-family:sans-serif;-inkscape-font-specification:'sans-serif Bold';letter-spacing:0px;word-spacing:0px;fill:#333333;fill-opacity:1;stroke:none;stroke-width:0.26458332"
       id="text2474">
      <path
         d="m 24.901459,252.38734 q 0.06253,0 0.0894,-0.0232 0.02739,-0.0233 0.02739,-0.0765 0,-0.0527 -0.02739,-0.0754 -0.02687,-0.0227 -0.0894,-0.0227 h -0.08372 v 0.19792 z m -0.08372,0.13746 v 0.29197 h -0.198954 v -0.77153 h 0.303857 q 0.152446,0 0.223242,0.0512 0.07131,0.0512 0.07131,0.16175 0,0.0765 -0.03721,0.12557 -0.03669,0.0491 -0.111105,0.0724 0.04083,0.009 0.07286,0.0424 0.03256,0.0326 0.06563,0.0992 l 0.108004,0.21911 h -0.211873 l -0.09405,-0.19172 q -0.02842,-0.0579 -0.05788,-0.0791 -0.02894,-0.0212 -0.07752,-0.0212 z"
         style="font-style:normal;font-variant:normal;font-weight:bold;font-stretch:normal;font-size:1.05833328px;font-family:sans-serif;-inkscape-font-specification:'sans-serif Bold';fill:#333333;stroke-width:0.26458332"
         id="path7271" />
    </g>
    <rect
       style="fill:#666666;fill-opacity:1;stroke:none;stroke-width:0.23452805;stroke-opacity:1"
       id="rect4932"
       width="0.33408689"
       height="2.2049735"
       x="22.824001"
       y="226.25246" />
    <rect
       y="216.72743"
       x="22.824001"
       height="2.2049735"
       width="0.33408689"
       id="rect4916"
       style="fill:#666666;fill-opacity:1;stroke:none;stroke-width:0.23452805;stroke-opacity:1" />
    <rect
       style="fill:#666666;fill-opacity:1;stroke:none;stroke-width:0.23452805;stroke-opacity:1"
       id="rect4900"
       width="0.33408689"
       height="2.2049735"
       x="22.824001"
       y="216.72743" />
    <rect
       y="206.14409"
       x="22.824001"
       height="2.2049735"
       width="0.33408689"
       id="rect4866"
       style="fill:#666666;fill-opacity:1;stroke:none;stroke-width:0.23452805;stroke-opacity:1" />
    <g
       aria-label="L"
       style="font-style:normal;font-variant:normal;font-weight:bold;font-stretch:normal;font-size:1.05833328px;line-height:1.25;font-family:sans-serif;-inkscape-font-specification:'sans-serif Bold';letter-spacing:0px;word-spacing:0px;fill:#333333;fill-opacity:1;stroke:none;stroke-width:0.26458332"
       id="text2590">
      <path
         d="m 28.889222,252.03548 h 0.198954 v 0.62115 h 0.349333 v 0.15038 h -0.548287 z"
         style="font-style:normal;font-variant:normal;font-weight:bold;font-stretch:normal;font-size:1.05833328px;font-family:sans-serif;-inkscape-font-specification:'sans-serif Bold';fill:#333333;stroke-width:0.26458332"
         id="path7268" />
    </g>
    <g
       aria-label="R"
       style="font-style:normal;font-variant:normal;font-weight:bold;font-stretch:normal;font-size:1.41111112px;line-height:1.25;font-family:sans-serif;-inkscape-font-specification:'sans-serif Bold';letter-spacing:0px;word-spacing:0px;fill:#333333;fill-opacity:1;stroke:none;stroke-width:0.26458332"
       id="text2594">
      <path
         d="m 32.838959,252.38734 q 0.06253,0 0.0894,-0.0232 0.02739,-0.0233 0.02739,-0.0765 0,-0.0527 -0.02739,-0.0754 -0.02687,-0.0227 -0.0894,-0.0227 h -0.08372 v 0.19792 z m -0.08372,0.13746 v 0.29197 h -0.198954 v -0.77153 h 0.303857 q 0.152446,0 0.223242,0.0512 0.07131,0.0512 0.07131,0.16175 0,0.0765 -0.03721,0.12557 -0.03669,0.0491 -0.111105,0.0724 0.04082,0.009 0.07286,0.0424 0.03256,0.0326 0.06563,0.0992 l 0.108004,0.21911 h -0.211873 l -0.09405,-0.19172 q -0.02842,-0.0579 -0.05788,-0.0791 -0.02894,-0.0212 -0.07751,-0.0212 z"
         style="font-style:normal;font-variant:normal;font-weight:bold;font-stretch:normal;font-size:1.05833328px;font-family:sans-serif;-inkscape-font-specification:'sans-serif Bold';fill:#333333;stroke-width:0.26458332"
         id="path7265" />
    </g>
    <rect
       y="226.25246"
       x="30.761497"
       height="2.2049735"
       width="0.33408689"
       id="rect4934"
       style="fill:#666666;fill-opacity:1;stroke:none;stroke-width:0.23452805;stroke-opacity:1" />
    <rect
       style="fill:#666666;fill-opacity:1;stroke:none;stroke-width:0.23452805;stroke-opacity:1"
       id="rect4868"
       width="0.33408689"
       height="2.2049735"
       x="30.761497"
       y="206.14409" />
    <g
       aria-label="L"
       style="font-style:normal;font-variant:normal;font-weight:bold;font-stretch:normal;font-size:1.05833328px;line-height:1.25;font-family:sans-serif;-inkscape-font-specification:'sans-serif Bold';letter-spacing:0px;word-spacing:0px;fill:#333333;fill-opacity:1;stroke:none;stroke-width:0.26458332"
       id="text2710">
      <path
         d="m 36.82672,252.03548 h 0.198954 v 0.62115 h 0.349333 v 0.15038 H 36.82672 Z"
         style="font-style:normal;font-variant:normal;font-weight:bold;font-stretch:normal;font-size:1.05833328px;font-family:sans-serif;-inkscape-font-specification:'sans-serif Bold';fill:#333333;stroke-width:0.26458332"
         id="path7262" />
    </g>
    <g
       aria-label="R"
       style="font-style:normal;font-variant:normal;font-weight:bold;font-stretch:normal;font-size:1.41111112px;line-height:1.25;font-family:sans-serif;-inkscape-font-specification:'sans-serif Bold';letter-spacing:0px;word-spacing:0px;fill:#333333;fill-opacity:1;stroke:none;stroke-width:0.26458332"
       id="text2714">
      <path
         d="m 40.776459,252.38734 q 0.06253,0 0.0894,-0.0232 0.02739,-0.0233 0.02739,-0.0765 0,-0.0527 -0.02739,-0.0754 -0.02687,-0.0227 -0.0894,-0.0227 h -0.08372 v 0.19792 z m -0.08372,0.13746 v 0.29197 h -0.198954 v -0.77153 h 0.303857 q 0.152446,0 0.223242,0.0512 0.07131,0.0512 0.07131,0.16175 0,0.0765 -0.03721,0.12557 -0.03669,0.0491 -0.111105,0.0724 0.04082,0.009 0.07286,0.0424 0.03256,0.0326 0.06563,0.0992 l 0.108004,0.21911 h -0.211873 l -0.09405,-0.19172 q -0.02842,-0.0579 -0.05788,-0.0791 -0.02894,-0.0212 -0.07751,-0.0212 z"
         style="font-style:normal;font-variant:normal;font-weight:bold;font-stretch:normal;font-size:1.05833328px;font-family:sans-serif;-inkscape-font-specification:'sans-serif Bold';fill:#333333;stroke-width:0.26458332"
         id="path7259" />
    </g>
    <rect
       style="fill:#666666;fill-opacity:1;stroke:none;stroke-width:0.23452805;stroke-opacity:1"
       id="rect4936"
       width="0.33408689"
       height="2.2049735"
       x="38.699001"
       y="226.25246" />
    <rect
       style="fill:#666666;fill-opacity:1;stroke:none;stroke-width:0.23452805;stroke-opacity:1"
       id="rect4904"
       width="0.33408689"
       height="2.2049735"
       x="38.699001"
       y="216.72743" />
    <rect
       y="206.14409"
       x="38.699001"
       height="2.2049735"
       width="0.33408689"
       id="rect4870"
       style="fill:#666666;fill-opacity:1;stroke:none;stroke-width:0.23452805;stroke-opacity:1" />
    <g
       aria-label="L"
       style="font-style:normal;font-variant:normal;font-weight:bold;font-stretch:normal;font-size:1.05833328px;line-height:1.25;font-family:sans-serif;-inkscape-font-specification:'sans-serif Bold';letter-spacing:0px;word-spacing:0px;fill:#333333;fill-opacity:1;stroke:none;stroke-width:0.26458332"
       id="text2830">
      <path
         d="m 44.764224,252.03548 h 0.198954 v 0.62115 h 0.349333 v 0.15038 h -0.548287 z"
         style="font-style:normal;font-variant:normal;font-weight:bold;font-stretch:normal;font-size:1.05833328px;font-family:sans-serif;-inkscape-font-specification:'sans-serif Bold';fill:#333333;stroke-width:0.26458332"
         id="path7256" />
    </g>
    <g
       aria-label="R"
       style="font-style:normal;font-variant:normal;font-weight:bold;font-stretch:normal;font-size:1.41111112px;line-height:1.25;font-family:sans-serif;-inkscape-font-specification:'sans-serif Bold';letter-spacing:0px;word-spacing:0px;fill:#333333;fill-opacity:1;stroke:none;stroke-width:0.26458332"
       id="text2834">
      <path
         d="m 48.713959,252.38734 q 0.06253,0 0.0894,-0.0232 0.02739,-0.0233 0.02739,-0.0765 0,-0.0527 -0.02739,-0.0754 -0.02687,-0.0227 -0.0894,-0.0227 h -0.08372 v 0.19792 z m -0.08372,0.13746 v 0.29197 h -0.198954 v -0.77153 h 0.303857 q 0.152446,0 0.223242,0.0512 0.07131,0.0512 0.07131,0.16175 0,0.0765 -0.03721,0.12557 -0.03669,0.0491 -0.111105,0.0724 0.04082,0.009 0.07286,0.0424 0.03256,0.0326 0.06563,0.0992 l 0.108004,0.21911 h -0.211873 l -0.09405,-0.19172 q -0.02842,-0.0579 -0.05788,-0.0791 -0.02894,-0.0212 -0.07751,-0.0212 z"
         style="font-style:normal;font-variant:normal;font-weight:bold;font-stretch:normal;font-size:1.05833328px;font-family:sans-serif;-inkscape-font-specification:'sans-serif Bold';fill:#333333;stroke-width:0.26458332"
         id="path7253" />
    </g>
    <rect
       style="fill:#666666;fill-opacity:1;stroke:none;stroke-width:0.23452805;stroke-opacity:1"
       id="rect4922"
       width="0.33408689"
       height="2.2049735"
       x="46.636501"
       y="216.72743" />
    <rect
       style="fill:#666666;fill-opacity:1;stroke:none;stroke-width:0.23452805;stroke-opacity:1"
       id="rect4872"
       width="0.33408689"
       height="2.2049735"
       x="46.636501"
       y="206.14409" />
    <g
       aria-label="L"
       style="font-style:normal;font-variant:normal;font-weight:bold;font-stretch:normal;font-size:1.05833328px;line-height:1.25;font-family:sans-serif;-inkscape-font-specification:'sans-serif Bold';letter-spacing:0px;word-spacing:0px;fill:#333333;fill-opacity:1;stroke:none;stroke-width:0.26458332"
       id="text2950">
      <path
         d="m 52.70172,252.03548 h 0.198954 v 0.62115 h 0.349333 v 0.15038 H 52.70172 Z"
         style="font-style:normal;font-variant:normal;font-weight:bold;font-stretch:normal;font-size:1.05833328px;font-family:sans-serif;-inkscape-font-specification:'sans-serif Bold';fill:#333333;stroke-width:0.26458332"
         id="path7250" />
    </g>
    <g
       aria-label="R"
       style="font-style:normal;font-variant:normal;font-weight:bold;font-stretch:normal;font-size:1.41111112px;line-height:1.25;font-family:sans-serif;-inkscape-font-specification:'sans-serif Bold';letter-spacing:0px;word-spacing:0px;fill:#333333;fill-opacity:1;stroke:none;stroke-width:0.26458332"
       id="text2954">
      <path
         d="m 56.651459,252.38734 q 0.06253,0 0.0894,-0.0232 0.02739,-0.0233 0.02739,-0.0765 0,-0.0527 -0.02739,-0.0754 -0.02687,-0.0227 -0.0894,-0.0227 h -0.08372 v 0.19792 z m -0.08372,0.13746 v 0.29197 h -0.198954 v -0.77153 h 0.303857 q 0.152446,0 0.223242,0.0512 0.07131,0.0512 0.07131,0.16175 0,0.0765 -0.03721,0.12557 -0.03669,0.0491 -0.111105,0.0724 0.04082,0.009 0.07286,0.0424 0.03256,0.0326 0.06563,0.0992 l 0.108004,0.21911 h -0.211873 l -0.09405,-0.19172 q -0.02842,-0.0579 -0.05788,-0.0791 -0.02894,-0.0212 -0.07751,-0.0212 z"
         style="font-style:normal;font-variant:normal;font-weight:bold;font-stretch:normal;font-size:1.05833328px;font-family:sans-serif;-inkscape-font-specification:'sans-serif Bold';fill:#333333;stroke-width:0.26458332"
         id="path7247" />
    </g>
    <rect
       style="fill:#666666;fill-opacity:1;stroke:none;stroke-width:0.23452805;stroke-opacity:1"
       id="rect4908"
       width="0.33408689"
       height="2.2049735"
       x="54.574001"
       y="216.72743" />
    <rect
       y="206.14409"
       x="54.574001"
       height="2.2049735"
       width="0.33408689"
       id="rect4874"
       style="fill:#666666;fill-opacity:1;stroke:none;stroke-width:0.23452805;stroke-opacity:1" />
    <g
       aria-label="L"
       style="font-style:normal;font-variant:normal;font-weight:bold;font-stretch:normal;font-size:1.05833328px;line-height:1.25;font-family:sans-serif;-inkscape-font-specification:'sans-serif Bold';letter-spacing:0px;word-spacing:0px;fill:#333333;fill-opacity:1;stroke:none;stroke-width:0.26458332"
       id="text3070">
      <path
         d="m 52.70172,252.03548 h 0.198954 v 0.62115 h 0.349333 v 0.15038 H 52.70172 Z"
         style="font-style:normal;font-variant:normal;font-weight:bold;font-stretch:normal;font-size:1.05833328px;font-family:sans-serif;-inkscape-font-specification:'sans-serif Bold';fill:#333333;stroke-width:0.26458332"
         id="path7244" />
    </g>
    <g
       aria-label="R"
       style="font-style:normal;font-variant:normal;font-weight:bold;font-stretch:normal;font-size:1.41111112px;line-height:1.25;font-family:sans-serif;-inkscape-font-specification:'sans-serif Bold';letter-spacing:0px;word-spacing:0px;fill:#333333;fill-opacity:1;stroke:none;stroke-width:0.26458332"
       id="text3074">
      <path
         d="m 56.651459,252.38734 q 0.06253,0 0.0894,-0.0232 0.02739,-0.0233 0.02739,-0.0765 0,-0.0527 -0.02739,-0.0754 -0.02687,-0.0227 -0.0894,-0.0227 h -0.08372 v 0.19792 z m -0.08372,0.13746 v 0.29197 h -0.198954 v -0.77153 h 0.303857 q 0.152446,0 0.223242,0.0512 0.07131,0.0512 0.07131,0.16175 0,0.0765 -0.03721,0.12557 -0.03669,0.0491 -0.111105,0.0724 0.04082,0.009 0.07286,0.0424 0.03256,0.0326 0.06563,0.0992 l 0.108004,0.21911 h -0.211873 l -0.09405,-0.19172 q -0.02842,-0.0579 -0.05788,-0.0791 -0.02894,-0.0212 -0.07751,-0.0212 z"
         style="font-style:normal;font-variant:normal;font-weight:bold;font-stretch:normal;font-size:1.05833328px;font-family:sans-serif;-inkscape-font-specification:'sans-serif Bold';fill:#333333;stroke-width:0.26458332"
         id="path7241" />
    </g>
    <rect
       y="224.13593"
       x="89.66185"
       height="0.49412221"
       width="11.866872"
       id="rect5296"
       style="fill:#000000;fill-opacity:1;stroke:none;stroke-width:0.07962135;stroke-opacity:0.68020301" />
    <rect
       style="fill:#000000;fill-opacity:1;stroke:none;stroke-width:0.07962135;stroke-opacity:0.68020301"
       id="rect5298"
       width="11.866872"
       height="0.49412221"
       x="89.66185"
       y="225.19424" />
    <rect
       y="226.25256"
       x="89.66185"
       height="0.49412221"
       width="11.866872"
       id="rect5300"
       style="fill:#000000;fill-opacity:1;stroke:none;stroke-width:0.07962135;stroke-opacity:0.68020301" />
    <rect
       style="fill:#000000;fill-opacity:1;stroke:none;stroke-width:0.07962135;stroke-opacity:0.68020301"
       id="rect5302"
       width="11.866872"
       height="0.49412221"
       x="89.66185"
       y="227.31088" />
    <rect
       y="228.3692"
       x="89.66185"
       height="0.49412221"
       width="11.866872"
       id="rect5304"
       style="fill:#000000;fill-opacity:1;stroke:none;stroke-width:0.07962135;stroke-opacity:0.68020301" />
    <rect
       style="fill:#000000;fill-opacity:1;stroke:none;stroke-width:0.07962135;stroke-opacity:0.68020301"
       id="rect5306"
       width="11.866872"
       height="0.49412221"
       x="89.66185"
       y="229.42752" />
    <rect
       style="fill:#666666;fill-opacity:1;stroke:none;stroke-width:0.23452805;stroke-opacity:1"
       id="rect4940"
       width="0.33408689"
       height="2.2049735"
       x="54.574001"
       y="226.25246" />
    <g
       aria-label="L"
       style="font-style:normal;font-variant:normal;font-weight:bold;font-stretch:normal;font-size:1.05833328px;line-height:1.25;font-family:sans-serif;-inkscape-font-specification:'sans-serif Bold';letter-spacing:0px;word-spacing:0px;fill:#333333;fill-opacity:1;stroke:none;stroke-width:0.26458332"
       id="text3190">
      <path
         d="m 60.639224,252.03548 h 0.198954 v 0.62115 h 0.349333 v 0.15038 h -0.548287 z"
         style="font-style:normal;font-variant:normal;font-weight:bold;font-stretch:normal;font-size:1.05833328px;font-family:sans-serif;-inkscape-font-specification:'sans-serif Bold';fill:#333333;stroke-width:0.26458332"
         id="path7238" />
    </g>
    <g
       aria-label="R"
       style="font-style:normal;font-variant:normal;font-weight:bold;font-stretch:normal;font-size:1.41111112px;line-height:1.25;font-family:sans-serif;-inkscape-font-specification:'sans-serif Bold';letter-spacing:0px;word-spacing:0px;fill:#333333;fill-opacity:1;stroke:none;stroke-width:0.26458332"
       id="text3194">
      <path
         d="m 64.588959,252.38734 q 0.06253,0 0.0894,-0.0232 0.02739,-0.0233 0.02739,-0.0765 0,-0.0527 -0.02739,-0.0754 -0.02687,-0.0227 -0.0894,-0.0227 h -0.08372 v 0.19792 z m -0.08372,0.13746 v 0.29197 h -0.198954 v -0.77153 h 0.303857 q 0.152446,0 0.223242,0.0512 0.07131,0.0512 0.07131,0.16175 0,0.0765 -0.03721,0.12557 -0.03669,0.0491 -0.111105,0.0724 0.04082,0.009 0.07286,0.0424 0.03256,0.0326 0.06563,0.0992 l 0.108004,0.21911 h -0.211873 l -0.09405,-0.19172 q -0.02842,-0.0579 -0.05788,-0.0791 -0.02894,-0.0212 -0.07751,-0.0212 z"
         style="font-style:normal;font-variant:normal;font-weight:bold;font-stretch:normal;font-size:1.05833328px;font-family:sans-serif;-inkscape-font-specification:'sans-serif Bold';fill:#333333;stroke-width:0.26458332"
         id="path7235" />
    </g>
    <rect
       y="226.25246"
       x="62.511497"
       height="2.2049735"
       width="0.33408689"
       id="rect4942"
       style="fill:#666666;fill-opacity:1;stroke:none;stroke-width:0.23452805;stroke-opacity:1" />
    <rect
       y="216.72743"
       x="62.511501"
       height="2.2049735"
       width="0.33408689"
       id="rect4944"
       style="fill:#666666;fill-opacity:1;stroke:none;stroke-width:0.23452805;stroke-opacity:1" />
    <rect
       style="fill:#666666;fill-opacity:1;stroke:none;stroke-width:0.23452805;stroke-opacity:1"
       id="rect4876"
       width="0.33408689"
       height="2.2049735"
       x="62.511497"
       y="206.14409" />
    <rect
       style="fill:#000000;fill-opacity:1;stroke:none;stroke-width:0.07962135;stroke-opacity:0.68020301"
       id="rect5310"
       width="11.866872"
       height="0.49412221"
       x="89.66185"
       y="231.54416" />
    <rect
       y="230.48584"
       x="89.66185"
       height="0.49412221"
       width="11.866872"
       id="rect5308"
       style="fill:#000000;fill-opacity:1;stroke:none;stroke-width:0.07962135;stroke-opacity:0.68020301" />
    <rect
       style="fill:#000000;fill-opacity:1;stroke:none;stroke-width:0.07962135;stroke-opacity:0.68020301"
       id="rect5334"
       width="11.866872"
       height="0.49412221"
       x="89.66185"
       y="244.24399" />
    <rect
       y="243.18567"
       x="89.66185"
       height="0.49412221"
       width="11.866872"
       id="rect5332"
       style="fill:#000000;fill-opacity:1;stroke:none;stroke-width:0.07962135;stroke-opacity:0.68020301" />
    <rect
       style="fill:#000000;fill-opacity:1;stroke:none;stroke-width:0.07962135;stroke-opacity:0.68020301"
       id="rect5330"
       width="11.866872"
       height="0.49412221"
       x="89.66185"
       y="242.12735" />
    <rect
       style="fill:#000000;fill-opacity:1;stroke:none;stroke-width:0.07962135;stroke-opacity:0.68020301"
       id="rect5318"
       width="11.866872"
       height="0.49412221"
       x="89.66185"
       y="235.77744" />
    <rect
       y="234.71912"
       x="89.66185"
       height="0.49412221"
       width="11.866872"
       id="rect5316"
       style="fill:#000000;fill-opacity:1;stroke:none;stroke-width:0.07962135;stroke-opacity:0.68020301" />
    <rect
       style="fill:#000000;fill-opacity:1;stroke:none;stroke-width:0.07962135;stroke-opacity:0.68020301"
       id="rect5314"
       width="11.866872"
       height="0.49412221"
       x="89.66185"
       y="233.6608" />
    <rect
       y="232.60248"
       x="89.66185"
       height="0.49412221"
       width="11.866872"
       id="rect5312"
       style="fill:#000000;fill-opacity:1;stroke:none;stroke-width:0.07962135;stroke-opacity:0.68020301" />
    <rect
       y="236.83575"
       x="89.66185"
       height="0.49412221"
       width="11.866872"
       id="rect5320"
       style="fill:#000000;fill-opacity:1;stroke:none;stroke-width:0.07962135;stroke-opacity:0.68020301" />
    <rect
       style="fill:#000000;fill-opacity:1;stroke:none;stroke-width:0.07962135;stroke-opacity:0.68020301"
       id="rect5322"
       width="11.866872"
       height="0.49412221"
       x="89.66185"
       y="237.89407" />
    <rect
       y="238.95239"
       x="89.66185"
       height="0.49412221"
       width="11.866872"
       id="rect5324"
       style="fill:#000000;fill-opacity:1;stroke:none;stroke-width:0.07962135;stroke-opacity:0.68020301" />
    <rect
       style="fill:#000000;fill-opacity:1;stroke:none;stroke-width:0.07962135;stroke-opacity:0.68020301"
       id="rect5326"
       width="11.866872"
       height="0.49412221"
       x="89.66185"
       y="240.01071" />
    <rect
       y="241.06903"
       x="89.66185"
       height="0.49412221"
       width="11.866872"
       id="rect5328"
       style="fill:#000000;fill-opacity:1;stroke:none;stroke-width:0.07962135;stroke-opacity:0.68020301" />
    <path
       inkscape:connector-curvature="0"
       id="path5555"
       d="m 88.546963,215.70236 c 0,0 2.87246,17.12683 7.705238,17.88369 4.832809,0.7568 2.841505,9.90762 2.841505,9.90762 0,0 0.33146,9.77002 4.269014,7.96116 3.93761,-1.80884 -4.177314,-18.58077 -4.177314,-18.58077 l -10.183759,-20.7134 z"
       style="fill:#c8c4b7;stroke:none;stroke-width:0.29528418px;stroke-linecap:butt;stroke-linejoin:miter;stroke-opacity:1" />
    <path
       style="fill:#c8c4b7;stroke:none;stroke-width:0.20905359px;stroke-linecap:butt;stroke-linejoin:miter;stroke-opacity:1"
       d="m 95.555097,227.08269 c 0,0 4.252216,8.08193 -0.0945,9.32077 -4.346721,1.23883 1.322924,4.89635 1.322924,4.89635 0,0 3.685249,4.36543 -0.850447,4.30644 -4.535715,-0.059 -3.590774,-8.96682 -3.590774,-8.96682 l 1.322916,-11.03154 z"
       id="path5408"
       inkscape:connector-curvature="0" />
    <rect
       style="fill:#c8c4b7;fill-opacity:1;stroke:none;stroke-width:0.2948173;stroke-opacity:0.68020301"
       id="rect5566"
       width="8.933857"
       height="13.43194"
       x="36.007801"
       y="252.27451"
       transform="matrix(0.9539277,-0.30003657,0.22040054,0.97540945,0,0)" />
    <rect
       y="200.1524"
       x="66.808891"
       height="93.409286"
       width="25.983389"
       id="rect3819"
       style="fill:#918a6f;fill-opacity:1;stroke:#000000;stroke-width:0.28838518;stroke-opacity:0.71065991" />
    <g
       aria-label="L"
       style="font-style:normal;font-variant:normal;font-weight:bold;font-stretch:normal;font-size:1.05833328px;line-height:1.25;font-family:sans-serif;-inkscape-font-specification:'sans-serif Bold';letter-spacing:0px;word-spacing:0px;fill:#333333;fill-opacity:1;stroke:none;stroke-width:0.26458332"
       id="text3855">
      <path
         d="m 70.164222,252.03548 h 0.198954 v 0.62115 h 0.349333 v 0.15038 h -0.548287 z"
         style="font-style:normal;font-variant:normal;font-weight:bold;font-stretch:normal;font-size:1.05833328px;font-family:sans-serif;-inkscape-font-specification:'sans-serif Bold';fill:#333333;stroke-width:0.26458332"
         id="path7232" />
    </g>
    <g
       aria-label="R"
       style="font-style:normal;font-variant:normal;font-weight:bold;font-stretch:normal;font-size:1.41111112px;line-height:1.25;font-family:sans-serif;-inkscape-font-specification:'sans-serif Bold';letter-spacing:0px;word-spacing:0px;fill:#333333;fill-opacity:1;stroke:none;stroke-width:0.26458332"
       id="text3859">
      <path
         d="m 74.11396,252.38734 q 0.06253,0 0.0894,-0.0232 0.02739,-0.0233 0.02739,-0.0765 0,-0.0527 -0.02739,-0.0754 -0.02687,-0.0227 -0.0894,-0.0227 h -0.08372 v 0.19792 z m -0.08372,0.13746 v 0.29197 H 73.83129 v -0.77153 h 0.303858 q 0.152445,0 0.223242,0.0512 0.07131,0.0512 0.07131,0.16175 0,0.0765 -0.03721,0.12557 -0.03669,0.0491 -0.111104,0.0724 0.04082,0.009 0.07286,0.0424 0.03256,0.0326 0.06563,0.0992 l 0.108003,0.21911 h -0.211873 l -0.09405,-0.19172 q -0.02842,-0.0579 -0.05788,-0.0791 -0.02894,-0.0212 -0.07751,-0.0212 z"
         style="font-style:normal;font-variant:normal;font-weight:bold;font-stretch:normal;font-size:1.05833328px;font-family:sans-serif;-inkscape-font-specification:'sans-serif Bold';fill:#333333;stroke-width:0.26458332"
         id="path7229" />
    </g>
    <g
       aria-label="L"
       style="font-style:normal;font-variant:normal;font-weight:bold;font-stretch:normal;font-size:1.05833328px;line-height:1.25;font-family:sans-serif;-inkscape-font-specification:'sans-serif Bold';letter-spacing:0px;word-spacing:0px;fill:#333333;fill-opacity:1;stroke:none;stroke-width:0.26458332"
       id="text4482">
      <path
         d="m 78.101722,252.03548 h 0.198954 v 0.62115 h 0.349333 v 0.15038 h -0.548287 z"
         style="font-style:normal;font-variant:normal;font-weight:bold;font-stretch:normal;font-size:1.05833328px;font-family:sans-serif;-inkscape-font-specification:'sans-serif Bold';fill:#333333;stroke-width:0.26458332"
         id="path7226" />
    </g>
    <g
       aria-label="R"
       style="font-style:normal;font-variant:normal;font-weight:bold;font-stretch:normal;font-size:1.41111112px;line-height:1.25;font-family:sans-serif;-inkscape-font-specification:'sans-serif Bold';letter-spacing:0px;word-spacing:0px;fill:#333333;fill-opacity:1;stroke:none;stroke-width:0.26458332"
       id="text4486">
      <path
         d="m 82.05146,252.38734 q 0.06253,0 0.0894,-0.0232 0.02739,-0.0233 0.02739,-0.0765 0,-0.0527 -0.02739,-0.0754 -0.02687,-0.0227 -0.0894,-0.0227 h -0.08372 v 0.19792 z m -0.08372,0.13746 v 0.29197 H 81.76879 v -0.77153 h 0.303858 q 0.152445,0 0.223242,0.0512 0.07131,0.0512 0.07131,0.16175 0,0.0765 -0.03721,0.12557 -0.03669,0.0491 -0.111104,0.0724 0.04082,0.009 0.07286,0.0424 0.03256,0.0326 0.06563,0.0992 l 0.108003,0.21911 h -0.211873 l -0.09405,-0.19172 q -0.02842,-0.0579 -0.05788,-0.0791 -0.02894,-0.0212 -0.07751,-0.0212 z"
         style="font-style:normal;font-variant:normal;font-weight:bold;font-stretch:normal;font-size:1.05833328px;font-family:sans-serif;-inkscape-font-specification:'sans-serif Bold';fill:#333333;stroke-width:0.26458332"
         id="path7223" />
    </g>
    <rect
       y="260.26715"
       x="85.74601"
       height="20.78166"
       width="4.7629666"
       id="rect4528"
       style="fill:#e6e6e6;fill-opacity:1;stroke:#000000;stroke-width:0.23611158;stroke-opacity:0.71065991" />
    <g
       aria-label="L"
       style="font-style:normal;font-variant:normal;font-weight:bold;font-stretch:normal;font-size:1.05833328px;line-height:1.25;font-family:sans-serif;-inkscape-font-specification:'sans-serif Bold';letter-spacing:0px;word-spacing:0px;fill:#333333;fill-opacity:1;stroke:none;stroke-width:0.26458332"
       id="text4560">
      <path
         d="m 86.039222,252.03548 h 0.198954 v 0.62115 h 0.349333 v 0.15038 h -0.548287 z"
         style="font-style:normal;font-variant:normal;font-weight:bold;font-stretch:normal;font-size:1.05833328px;font-family:sans-serif;-inkscape-font-specification:'sans-serif Bold';fill:#333333;stroke-width:0.26458332"
         id="path7220" />
    </g>
    <g
       aria-label="R"
       style="font-style:normal;font-variant:normal;font-weight:bold;font-stretch:normal;font-size:1.41111112px;line-height:1.25;font-family:sans-serif;-inkscape-font-specification:'sans-serif Bold';letter-spacing:0px;word-spacing:0px;fill:#333333;fill-opacity:1;stroke:none;stroke-width:0.26458332"
       id="text4564">
      <path
         d="m 89.98896,252.38734 q 0.06253,0 0.0894,-0.0232 0.02739,-0.0233 0.02739,-0.0765 0,-0.0527 -0.02739,-0.0754 -0.02687,-0.0227 -0.0894,-0.0227 h -0.08372 v 0.19792 z m -0.08372,0.13746 v 0.29197 H 89.70629 v -0.77153 h 0.303858 q 0.152445,0 0.223242,0.0512 0.07131,0.0512 0.07131,0.16175 0,0.0765 -0.03721,0.12557 -0.03669,0.0491 -0.111104,0.0724 0.04082,0.009 0.07286,0.0424 0.03256,0.0326 0.06563,0.0992 l 0.108003,0.21911 h -0.211873 l -0.09405,-0.19172 q -0.02842,-0.0579 -0.05788,-0.0791 -0.02894,-0.0212 -0.07751,-0.0212 z"
         style="font-style:normal;font-variant:normal;font-weight:bold;font-stretch:normal;font-size:1.05833328px;font-family:sans-serif;-inkscape-font-specification:'sans-serif Bold';fill:#333333;stroke-width:0.26458332"
         id="path7217" />
    </g>
    <rect
       style="fill:#c6800e;fill-opacity:1;stroke:#000000;stroke-width:0.16536181;stroke-opacity:0.71065991"
       id="rect4738"
       width="16.751436"
       height="47.638527"
       x="103.25998"
       y="245.98499" />
    <rect
       style="fill:#e6e6e6;fill-opacity:1;stroke:#000000;stroke-width:0.42335528;stroke-opacity:0.71065991"
       id="rect4820"
       width="11.246307"
       height="28.295877"
       x="105.92627"
       y="252.66145" />
    <rect
       y="200.01558"
       x="103.25827"
       height="44.923157"
       width="16.755499"
       id="rect4846"
       style="fill:#484537;fill-opacity:1;stroke:#000000;stroke-width:0.16059937;stroke-opacity:0.71065991" />
    <g
       aria-label="Master"
       style="font-style:normal;font-variant:normal;font-weight:bold;font-stretch:normal;font-size:3.52777767px;line-height:1.25;font-family:sans-serif;-inkscape-font-specification:'sans-serif Bold';letter-spacing:0px;word-spacing:0px;fill:#ffffff;fill-opacity:1;stroke:none;stroke-width:0.26458332"
       id="text4952"
       transform="translate(0.52916663)">
      <path
         d="m 104.49985,248.22287 h 0.84405 l 0.58566,1.37631 0.58911,-1.37631 h 0.84233 v 2.57176 h -0.62701 v -1.88102 l -0.59255,1.38665 h -0.4203 l -0.59256,-1.38665 v 1.88102 h -0.62873 z"
         style="font-style:normal;font-variant:normal;font-weight:bold;font-stretch:normal;font-size:3.52777767px;font-family:sans-serif;-inkscape-font-specification:'sans-serif Bold';fill:#ffffff;stroke-width:0.26458332"
         id="path7110"
         inkscape:connector-curvature="0" />
      <path
         d="m 108.851,249.92647 q -0.19292,0 -0.29111,0.0654 -0.0965,0.0655 -0.0965,0.19293 0,0.11713 0.0775,0.18431 0.0792,0.0655 0.21876,0.0655 0.17398,0 0.29283,-0.12402 0.11886,-0.12575 0.11886,-0.31351 v -0.0706 z m 0.94224,-0.23255 v 1.10071 h -0.62184 v -0.28594 q -0.12402,0.1757 -0.27905,0.25666 -0.15503,0.0792 -0.37724,0.0792 -0.29973,0 -0.48748,-0.17398 -0.18604,-0.1757 -0.18604,-0.45475 0,-0.33935 0.23255,-0.49782 0.23426,-0.15847 0.7338,-0.15847 h 0.36346 v -0.0482 q 0,-0.14641 -0.11541,-0.21359 -0.11541,-0.0689 -0.36001,-0.0689 -0.1981,0 -0.36863,0.0396 -0.17053,0.0396 -0.31695,0.11886 v -0.47026 q 0.19809,-0.0482 0.39791,-0.0723 0.19982,-0.0258 0.39963,-0.0258 0.52193,0 0.75275,0.20671 0.23255,0.20498 0.23255,0.66834 z"
         style="font-style:normal;font-variant:normal;font-weight:bold;font-stretch:normal;font-size:3.52777767px;font-family:sans-serif;-inkscape-font-specification:'sans-serif Bold';fill:#ffffff;stroke-width:0.26458332"
         id="path7112"
         inkscape:connector-curvature="0" />
      <path
         d="m 111.87752,248.92567 v 0.46853 q -0.19809,-0.0827 -0.3824,-0.12402 -0.18432,-0.0413 -0.34796,-0.0413 -0.1757,0 -0.26183,0.0448 -0.0844,0.0431 -0.0844,0.13436 0,0.0741 0.0637,0.11369 0.0655,0.0396 0.23255,0.0586 l 0.10852,0.0155 q 0.4737,0.0603 0.63734,0.19809 0.16364,0.13781 0.16364,0.43236 0,0.30834 -0.22737,0.46337 -0.22738,0.15503 -0.67869,0.15503 -0.1912,0 -0.39618,-0.031 -0.20326,-0.0293 -0.41858,-0.0896 v -0.46854 q 0.18431,0.0896 0.37724,0.13436 0.19464,0.0448 0.39446,0.0448 0.18087,0 0.27216,-0.0499 0.0913,-0.05 0.0913,-0.14814 0,-0.0827 -0.0637,-0.1223 -0.062,-0.0413 -0.24977,-0.0637 l -0.10852,-0.0138 q -0.41169,-0.0517 -0.57705,-0.1912 -0.16537,-0.13953 -0.16537,-0.42375 0,-0.30661 0.21015,-0.45475 0.21016,-0.14814 0.64424,-0.14814 0.17053,0 0.35829,0.0258 0.18776,0.0258 0.40824,0.081 z"
         style="font-style:normal;font-variant:normal;font-weight:bold;font-stretch:normal;font-size:3.52777767px;font-family:sans-serif;-inkscape-font-specification:'sans-serif Bold';fill:#ffffff;stroke-width:0.26458332"
         id="path7114"
         inkscape:connector-curvature="0" />
      <path
         d="m 113.14532,248.31761 v 0.54777 h 0.63562 v 0.44097 h -0.63562 v 0.81821 q 0,0.13436 0.0534,0.18259 0.0534,0.0465 0.21187,0.0465 h 0.31695 v 0.44097 h -0.52882 q -0.36518,0 -0.51849,-0.15158 -0.15159,-0.15331 -0.15159,-0.51849 v -0.81821 h -0.30661 v -0.44097 h 0.30661 v -0.54777 z"
         style="font-style:normal;font-variant:normal;font-weight:bold;font-stretch:normal;font-size:3.52777767px;font-family:sans-serif;-inkscape-font-specification:'sans-serif Bold';fill:#ffffff;stroke-width:0.26458332"
         id="path7116"
         inkscape:connector-curvature="0" />
      <path
         d="m 116.08571,249.82484 v 0.1757 h -1.44178 q 0.0224,0.21704 0.15675,0.32556 0.13436,0.10852 0.37552,0.10852 0.19465,0 0.39791,-0.0568 0.20498,-0.0586 0.4203,-0.1757 v 0.47542 q -0.21876,0.0827 -0.43753,0.12402 -0.21876,0.0431 -0.43752,0.0431 -0.52366,0 -0.81477,-0.26528 -0.28939,-0.26699 -0.28939,-0.74758 0,-0.47198 0.28422,-0.74242 0.28595,-0.27044 0.78549,-0.27044 0.45475,0 0.72691,0.27388 0.27389,0.27389 0.27389,0.73209 z m -0.6339,-0.20499 q 0,-0.1757 -0.10336,-0.28249 -0.10163,-0.10852 -0.26699,-0.10852 -0.17914,0 -0.29111,0.10163 -0.11197,0.0999 -0.13953,0.28938 z"
         style="font-style:normal;font-variant:normal;font-weight:bold;font-stretch:normal;font-size:3.52777767px;font-family:sans-serif;-inkscape-font-specification:'sans-serif Bold';fill:#ffffff;stroke-width:0.26458332"
         id="path7118"
         inkscape:connector-curvature="0" />
      <path
         d="m 117.98395,249.39076 q -0.081,-0.0379 -0.16192,-0.0551 -0.0792,-0.0189 -0.16019,-0.0189 -0.23772,0 -0.36691,0.1533 -0.12747,0.15159 -0.12747,0.43581 v 0.88883 h -0.61667 v -1.92925 h 0.61667 v 0.31695 q 0.11886,-0.18948 0.27217,-0.27561 0.15503,-0.0879 0.37035,-0.0879 0.031,0 0.0672,0.003 0.0362,0.002 0.10508,0.0103 z"
         style="font-style:normal;font-variant:normal;font-weight:bold;font-stretch:normal;font-size:3.52777767px;font-family:sans-serif;-inkscape-font-specification:'sans-serif Bold';fill:#ffffff;stroke-width:0.26458332"
         id="path7120"
         inkscape:connector-curvature="0" />
    </g>
    <text
       xml:space="preserve"
       style="font-style:normal;font-weight:normal;font-size:2.11666656px;line-height:1.25;font-family:sans-serif;letter-spacing:0px;word-spacing:0px;fill:#ffffff;fill-opacity:1;stroke:none;stroke-width:0.26458332"
       x="-291.8754"
       y="118.67057"
       id="text4989"
       transform="rotate(-90)"><tspan
         sodipodi:role="line"
         id="tspan4987"
         x="-291.8754"
         y="118.67057"
         style="font-size:2.11666656px;fill:#ffffff;stroke-width:0.26458332">out</tspan></text>
    <text
       xml:space="preserve"
       style="font-style:normal;font-weight:normal;font-size:2.11666656px;line-height:1.25;font-family:sans-serif;letter-spacing:0px;word-spacing:0px;fill:#ffffff;fill-opacity:1;stroke:none;stroke-width:0.26458332"
       x="-285.52539"
       y="118.67057"
       id="text5073"
       transform="rotate(-90)"><tspan
         sodipodi:role="line"
         id="tspan5071"
         x="-285.52539"
         y="118.67057"
         style="font-size:2.11666656px;fill:#ffffff;stroke-width:0.26458332">In</tspan></text>
    <g
       aria-label="Comp"
       style="font-style:normal;font-variant:normal;font-weight:bold;font-stretch:normal;font-size:3.52777767px;line-height:1.25;font-family:sans-serif;-inkscape-font-specification:'sans-serif Bold';letter-spacing:0px;word-spacing:0px;fill:#ffffff;fill-opacity:1;stroke:none;stroke-width:0.26458332"
       id="text5181"
       transform="translate(0.52916663)">
      <path
         d="m 107.59775,204.08666 q -0.18259,0.0947 -0.38068,0.14297 -0.1981,0.0482 -0.41342,0.0482 -0.64251,0 -1.01802,-0.35829 -0.37552,-0.36001 -0.37552,-0.97496 0,-0.61667 0.37552,-0.97496 0.37551,-0.36002 1.01802,-0.36002 0.21532,0 0.41342,0.0482 0.19809,0.0482 0.38068,0.14298 v 0.53226 q -0.18431,-0.12574 -0.36346,-0.18431 -0.17914,-0.0586 -0.37724,-0.0586 -0.35484,0 -0.5581,0.22738 -0.20326,0.22738 -0.20326,0.62701 0,0.39791 0.20326,0.62528 0.20326,0.22738 0.5581,0.22738 0.1981,0 0.37724,-0.0586 0.17915,-0.0586 0.36346,-0.18431 z"
         style="font-style:normal;font-variant:normal;font-weight:bold;font-stretch:normal;font-size:3.52777767px;font-family:sans-serif;-inkscape-font-specification:'sans-serif Bold';fill:#ffffff;stroke-width:0.26458332"
         id="path7311"
         inkscape:connector-curvature="0" />
      <path
         d="m 109.03952,202.69312 q -0.20498,0 -0.3135,0.14813 -0.1068,0.14642 -0.1068,0.42375 0,0.27733 0.1068,0.42547 0.10852,0.14642 0.3135,0.14642 0.20154,0 0.30834,-0.14642 0.1068,-0.14814 0.1068,-0.42547 0,-0.27733 -0.1068,-0.42375 -0.1068,-0.14813 -0.30834,-0.14813 z m 0,-0.44098 q 0.49782,0 0.77687,0.26872 0.28078,0.26872 0.28078,0.74414 0,0.47542 -0.28078,0.74414 -0.27905,0.26872 -0.77687,0.26872 -0.49954,0 -0.78204,-0.26872 -0.28077,-0.26872 -0.28077,-0.74414 0,-0.47542 0.28077,-0.74414 0.2825,-0.26872 0.78204,-0.26872 z"
         style="font-style:normal;font-variant:normal;font-weight:bold;font-stretch:normal;font-size:3.52777767px;font-family:sans-serif;-inkscape-font-specification:'sans-serif Bold';fill:#ffffff;stroke-width:0.26458332"
         id="path7313"
         inkscape:connector-curvature="0" />
      <path
         d="m 112.33475,202.61905 q 0.11714,-0.17915 0.27733,-0.27217 0.16192,-0.0947 0.35485,-0.0947 0.33245,0 0.50643,0.20499 0.17398,0.20498 0.17398,0.596 v 1.17478 h -0.62012 v -1.00597 q 0.002,-0.0224 0.002,-0.0465 0.002,-0.0241 0.002,-0.0689 0,-0.20499 -0.0603,-0.29628 -0.0603,-0.093 -0.19464,-0.093 -0.1757,0 -0.27217,0.14469 -0.0947,0.1447 -0.0982,0.41858 v 0.94741 h -0.62012 v -1.00597 q 0,-0.3204 -0.0551,-0.41169 -0.0551,-0.093 -0.19637,-0.093 -0.17742,0 -0.27388,0.14642 -0.0965,0.14469 -0.0965,0.41513 v 0.94913 h -0.62011 v -1.92926 h 0.62011 v 0.2825 q 0.11369,-0.16364 0.26011,-0.24632 0.14814,-0.0827 0.32556,-0.0827 0.19981,0 0.35312,0.0965 0.15331,0.0965 0.23254,0.27044 z"
         style="font-style:normal;font-variant:normal;font-weight:bold;font-stretch:normal;font-size:3.52777767px;font-family:sans-serif;-inkscape-font-specification:'sans-serif Bold';fill:#ffffff;stroke-width:0.26458332"
         id="path7315"
         inkscape:connector-curvature="0" />
      <path
         d="m 114.84278,203.94885 v 1.01286 h -0.61667 v -2.66306 h 0.61667 v 0.2825 q 0.12747,-0.16881 0.2825,-0.24805 0.15503,-0.081 0.35657,-0.081 0.35657,0 0.58567,0.28422 0.22909,0.2825 0.22909,0.72864 0,0.44614 -0.22909,0.73036 -0.2291,0.2825 -0.58567,0.2825 -0.20154,0 -0.35657,-0.0792 -0.15503,-0.081 -0.2825,-0.24977 z m 0.40997,-1.24884 q -0.19809,0 -0.30489,0.14641 -0.10508,0.1447 -0.10508,0.41858 0,0.27389 0.10508,0.4203 0.1068,0.1447 0.30489,0.1447 0.19809,0 0.30145,-0.1447 0.10507,-0.14469 0.10507,-0.4203 0,-0.27561 -0.10507,-0.4203 -0.10336,-0.14469 -0.30145,-0.14469 z"
         style="font-style:normal;font-variant:normal;font-weight:bold;font-stretch:normal;font-size:3.52777767px;font-family:sans-serif;-inkscape-font-specification:'sans-serif Bold';fill:#ffffff;stroke-width:0.26458332"
         id="path7317"
         inkscape:connector-curvature="0" />
    </g>
    <g
       aria-label="Mx8"
       transform="rotate(-90)"
       style="font-style:normal;font-variant:normal;font-weight:bold;font-stretch:normal;font-size:11.28888893px;line-height:1.25;font-family:Seravek;-inkscape-font-specification:'Seravek Bold';letter-spacing:0px;word-spacing:0px;fill:#000000;fill-opacity:1;stroke:none;stroke-width:0.26458332"
       id="text5261">
      <path
         d="m -217.03524,100.60639 h -1.78365 l -1.46755,-3.014137 -0.22578,4.210757 h -1.81751 l 0.56444,-7.518401 h 1.67076 l 2.16747,4.594578 2.16746,-4.594578 h 1.67076 l 0.56444,7.518401 h -1.81751 l -0.22578,-4.210757 z"
         style="font-style:normal;font-variant:normal;font-weight:bold;font-stretch:normal;font-size:11.28888893px;font-family:Seravek;-inkscape-font-specification:'Seravek Bold';stroke-width:0.26458332"
         id="path7320" />
      <path
         d="m -212.89169,101.80301 1.97556,-2.799645 -1.90783,-2.731912 h 1.85138 l 1.016,1.524 1.02729,-1.524 h 1.85138 l -1.91911,2.731912 1.98684,2.799645 h -1.87395 l -1.07245,-1.59173 -1.06115,1.59173 z"
         style="font-style:normal;font-variant:normal;font-weight:bold;font-stretch:normal;font-size:11.28888893px;font-family:Seravek;-inkscape-font-specification:'Seravek Bold';stroke-width:0.26458332"
         id="path7322" />
      <path
         d="m -203.84647,94.149142 q 0.53058,0 0.97085,0.135467 0.45155,0.124178 0.76764,0.361244 0.31609,0.237067 0.48542,0.587023 0.18063,0.338666 0.18063,0.778933 0,0.293511 -0.11289,0.553156 -0.1016,0.259644 -0.27094,0.485422 -0.16933,0.214489 -0.39511,0.4064 -0.21449,0.191911 -0.45155,0.361244 0.27093,0.180622 0.53057,0.395111 0.25965,0.2032 0.46285,0.451556 0.2032,0.248355 0.31609,0.553155 0.12418,0.293512 0.12418,0.666045 0,0.428982 -0.2032,0.812802 -0.2032,0.37253 -0.55316,0.65475 -0.34996,0.27094 -0.82409,0.42898 -0.47413,0.15805 -1.02729,0.15805 -1.23049,0 -1.91911,-0.55316 -0.68862,-0.55316 -0.68862,-1.478844 0,-0.338667 0.12418,-0.620889 0.12417,-0.282222 0.31609,-0.519289 0.2032,-0.248356 0.45155,-0.451556 0.25965,-0.2032 0.53058,-0.395111 -0.27093,-0.191911 -0.49671,-0.383822 -0.21449,-0.2032 -0.38382,-0.417689 -0.15805,-0.214489 -0.24836,-0.462844 -0.0903,-0.248356 -0.0903,-0.541867 0,-0.428978 0.16933,-0.790222 0.16934,-0.361245 0.47414,-0.620889 0.31608,-0.259645 0.75635,-0.4064 0.45156,-0.146756 1.00471,-0.146756 z m 0.9144,5.723467 q 0,-0.169333 -0.0564,-0.3048 -0.0452,-0.135467 -0.16934,-0.259644 -0.11288,-0.135467 -0.3048,-0.270934 -0.18062,-0.146755 -0.45155,-0.338666 -0.39511,0.293511 -0.62089,0.541866 -0.22578,0.248356 -0.22578,0.632178 0,0.372531 0.23707,0.575731 0.24835,0.2032 0.67733,0.2032 0.4064,0 0.65476,-0.22578 0.25964,-0.22577 0.25964,-0.553151 z m -1.65946,-3.793067 q 0,0.124178 0.0226,0.237067 0.0339,0.1016 0.11289,0.214489 0.0903,0.112889 0.23707,0.237067 0.14675,0.124177 0.38382,0.293511 0.32738,-0.237067 0.53058,-0.462845 0.2032,-0.237066 0.2032,-0.519289 0,-0.327377 -0.21449,-0.485422 -0.21449,-0.169333 -0.53058,-0.169333 -0.32738,0 -0.54186,0.180622 -0.2032,0.180622 -0.2032,0.474133 z"
         style="font-style:normal;font-variant:normal;font-weight:bold;font-stretch:normal;font-size:11.28888893px;font-family:Seravek;-inkscape-font-specification:'Seravek Bold';stroke-width:0.26458332"
         id="path7324" />
    </g>
    <g
       id="g5292"
       transform="translate(0.34017863,12.303125)">
      <path
         style="fill:#000000;fill-opacity:1;stroke:none;stroke-width:0.63841641;stroke-opacity:0.68020301"
         d="m 99.702867,254.33951 a 1.289796,1.289796 0 0 1 -1.289796,1.28979 1.289796,1.289796 0 0 1 -1.289796,-1.28979 1.289796,1.289796 0 0 1 1.289796,-1.2898 1.289796,1.289796 0 0 1 1.289796,1.2898 z"
         id="path5267" />
      <g
         aria-label="ModulOr"
         transform="rotate(-90)"
         style="font-style:normal;font-variant:normal;font-weight:bold;font-stretch:normal;font-size:8.46666622px;line-height:1.25;font-family:Seravek;-inkscape-font-specification:'Seravek Bold';letter-spacing:0px;word-spacing:0px;fill:#000000;fill-opacity:1;stroke:none;stroke-width:0.26458332"
         id="text5253">
        <path
           d="m -277.18391,100.43428 h -1.33773 l -1.10067,-2.260598 -0.16933,3.158068 h -1.36314 l 0.42334,-5.638801 h 1.25306 l 1.6256,3.445933 1.6256,-3.445933 h 1.25307 l 0.42333,5.638801 h -1.36313 l -0.16933,-3.158068 z"
           style="font-style:normal;font-variant:normal;font-weight:bold;font-stretch:normal;font-size:8.46666622px;font-family:Seravek;-inkscape-font-specification:'Seravek Bold';stroke-width:0.26458332"
           id="path7095" />
        <path
           d="m -269.56153,99.257416 q 0,0.4572 -0.14393,0.855134 -0.14394,0.38947 -0.42334,0.6858 -0.2794,0.28787 -0.69426,0.4572 -0.41487,0.16087 -0.94827,0.16087 -0.5334,0 -0.94827,-0.16087 -0.41486,-0.16933 -0.69426,-0.4572 -0.2794,-0.29633 -0.42334,-0.6858 -0.14393,-0.397934 -0.14393,-0.855134 0,-0.4572 0.14393,-0.846667 0.14394,-0.397933 0.42334,-0.6858 0.2794,-0.296333 0.69426,-0.4572 0.41487,-0.169333 0.94827,-0.169333 0.5334,0 0.94827,0.169333 0.41486,0.160867 0.69426,0.4572 0.2794,0.287867 0.42334,0.6858 0.14393,0.389467 0.14393,0.846667 z m -1.35467,0 q 0,-0.220134 -0.0423,-0.423334 -0.0423,-0.211666 -0.14393,-0.372533 -0.0931,-0.169333 -0.26247,-0.262467 -0.16087,-0.1016 -0.4064,-0.1016 -0.24553,0 -0.41487,0.1016 -0.16086,0.09313 -0.26246,0.262467 -0.0931,0.160867 -0.13547,0.372533 -0.0423,0.2032 -0.0423,0.423334 0,0.220133 0.0423,0.4318 0.0423,0.2032 0.13547,0.372534 0.1016,0.16087 0.26246,0.26247 0.16934,0.0931 0.41487,0.0931 0.24553,0 0.4064,-0.0931 0.16933,-0.1016 0.26247,-0.26247 0.1016,-0.169334 0.14393,-0.372534 0.0423,-0.211667 0.0423,-0.4318 z"
           style="font-style:normal;font-variant:normal;font-weight:bold;font-stretch:normal;font-size:8.46666622px;font-family:Seravek;-inkscape-font-specification:'Seravek Bold';stroke-width:0.26458332"
           id="path7097" />
        <path
           d="m -264.86994,101.33175 h -1.2954 v -0.52493 q -0.19473,0.2794 -0.508,0.44873 -0.3048,0.16087 -0.7366,0.16087 -0.34713,0 -0.65193,-0.14394 -0.3048,-0.1524 -0.5334,-0.42333 -0.22013,-0.2794 -0.34713,-0.66887 -0.127,-0.389464 -0.127,-0.872064 0,-0.541867 0.16933,-0.956734 0.1778,-0.414866 0.46567,-0.694266 0.29633,-0.2794 0.6858,-0.414867 0.38946,-0.143933 0.82973,-0.143933 0.22013,0 0.38947,0.03387 0.16933,0.0254 0.3048,0.06773 v -1.845733 h 1.35466 z m -2.04893,-0.95673 q 0.4318,0 0.69427,-0.28787 v -1.905001 q -0.18627,-0.06773 -0.4826,-0.06773 -0.508,0 -0.762,0.313266 -0.24554,0.313267 -0.24554,0.855134 0,0.4826 0.18627,0.787404 0.19473,0.3048 0.6096,0.3048 z"
           style="font-style:normal;font-variant:normal;font-weight:bold;font-stretch:normal;font-size:8.46666622px;font-family:Seravek;-inkscape-font-specification:'Seravek Bold';stroke-width:0.26458332"
           id="path7099" />
        <path
           d="m -259.96787,97.183083 v 4.148667 h -1.30387 v -0.54187 q -0.23706,0.3556 -0.5334,0.49107 -0.29633,0.13547 -0.62653,0.13547 -0.41487,0 -0.70273,-0.16934 -0.2794,-0.1778 -0.4572,-0.46566 -0.16934,-0.28787 -0.24554,-0.6604 -0.0762,-0.381004 -0.0762,-0.795871 v -2.142066 h 1.35467 v 2.167466 q 0,0.516467 0.14393,0.762001 0.14394,0.23707 0.47414,0.23707 0.21166,0 0.36406,-0.0931 0.16087,-0.0931 0.254,-0.2286 v -2.844797 z"
           style="font-style:normal;font-variant:normal;font-weight:bold;font-stretch:normal;font-size:8.46666622px;font-family:Seravek;-inkscape-font-specification:'Seravek Bold';stroke-width:0.26458332"
           id="path7101" />
        <path
           d="m -257.66388,100.06175 q 0,0.16087 0.0677,0.254 0.0677,0.0847 0.26246,0.0847 0.11854,0 0.28787,-0.0254 l 0.0423,0.93133 q -0.16933,0.0508 -0.38946,0.0762 -0.21167,0.0339 -0.44027,0.0339 -0.33867,0 -0.56727,-0.1016 -0.2286,-0.1016 -0.36406,-0.27094 -0.13547,-0.16933 -0.19474,-0.381 -0.0593,-0.22013 -0.0593,-0.44873 v -4.859867 h 1.35466 z"
           style="font-style:normal;font-variant:normal;font-weight:bold;font-stretch:normal;font-size:8.46666622px;font-family:Seravek;-inkscape-font-specification:'Seravek Bold';stroke-width:0.26458332"
           id="path7103" />
        <path
           d="m -250.87546,98.512349 q 0,0.601133 -0.19474,1.134533 -0.19473,0.524938 -0.56726,0.922868 -0.36407,0.39793 -0.89747,0.635 -0.5334,0.2286 -1.2192,0.2286 -0.6858,0 -1.22767,-0.2286 -0.5334,-0.23707 -0.90593,-0.635 -0.36407,-0.39793 -0.5588,-0.922868 -0.18627,-0.5334 -0.18627,-1.134533 0,-0.601133 0.18627,-1.126066 0.19473,-0.5334 0.5588,-0.931334 0.37253,-0.397933 0.90593,-0.626533 0.54187,-0.237067 1.22767,-0.237067 0.6858,0 1.2192,0.237067 0.5334,0.2286 0.89747,0.626533 0.37253,0.397934 0.56726,0.931334 0.19474,0.524933 0.19474,1.126066 z m -2.87867,1.820331 q 0.36407,0 0.64347,-0.13546 0.2794,-0.13547 0.46566,-0.372538 0.19474,-0.245533 0.28787,-0.575733 0.0931,-0.338667 0.0931,-0.7366 0,-0.397933 -0.0931,-0.728133 -0.0931,-0.338667 -0.28787,-0.575733 -0.18626,-0.245534 -0.46566,-0.381 -0.2794,-0.135467 -0.64347,-0.135467 -0.37253,0 -0.65193,0.135467 -0.27094,0.135466 -0.46567,0.381 -0.18627,0.237066 -0.2794,0.575733 -0.0931,0.3302 -0.0931,0.728133 0,0.397933 0.0931,0.7366 0.0931,0.3302 0.2794,0.575733 0.19473,0.237068 0.46567,0.372538 0.2794,0.13546 0.65193,0.13546 z"
           style="font-style:normal;font-variant:normal;font-weight:bold;font-stretch:normal;font-size:8.46666622px;font-family:Seravek;-inkscape-font-specification:'Seravek Bold';stroke-width:0.26458332"
           id="path7105" />
        <path
           d="M -247.42913,98.351482 H -247.59 q -0.80433,0 -1.13453,0.4064 v 2.573868 h -1.35467 v -4.148667 h 1.31233 v 0.694266 q 0.11854,-0.338667 0.36407,-0.5334 0.24553,-0.194733 0.64347,-0.194733 0.11853,0 0.19473,0.01693 0.0847,0.0085 0.16933,0.03387 z"
           style="font-style:normal;font-variant:normal;font-weight:bold;font-stretch:normal;font-size:8.46666622px;font-family:Seravek;-inkscape-font-specification:'Seravek Bold';stroke-width:0.26458332"
           id="path7107" />
      </g>
    </g>
    <g
       aria-label="In"
       style="font-style:normal;font-weight:normal;font-size:2.11666656px;line-height:1.25;font-family:sans-serif;letter-spacing:0px;word-spacing:0px;fill:#000000;fill-opacity:1;stroke:none;stroke-width:0.26458332"
       id="text5468">
      <path
         d="m 0.27140634,288.96192 h 0.20877278 v 1.54305 H 0.27140634 Z"
         style="font-size:2.11666656px;stroke-width:0.26458332"
         id="path7207" />
      <path
         d="m 1.8496045,289.80631 v 0.69866 H 1.6594352 v -0.69246 q 0,-0.16433 -0.064079,-0.24598 -0.064079,-0.0817 -0.1922363,-0.0817 -0.1539957,0 -0.2428792,0.0982 -0.088883,0.0982 -0.088883,0.26768 v 0.65422 H 0.88015466 v -1.15755 H 1.0713575 v 0.17984 q 0.068213,-0.10439 0.1601969,-0.15607 0.093018,-0.0517 0.2139404,-0.0517 0.199471,0 0.3017903,0.12402 0.1023194,0.12299 0.1023194,0.36277 z"
         style="font-size:2.11666656px;stroke-width:0.26458332"
         id="path7209" />
    </g>
    <g
       aria-label="Pan"
       style="font-style:normal;font-weight:normal;font-size:2.11666656px;line-height:1.25;font-family:sans-serif;letter-spacing:0px;word-spacing:0px;fill:#000000;fill-opacity:1;stroke:none;stroke-width:0.26458332"
       id="text5472">
      <path
         d="m -1.3801726,254.73767 v 0.57981 h 0.2625163 q 0.14572749,0 0.22530919,-0.0754 0.0795817,-0.0754 0.0795817,-0.21497 0,-0.1385 -0.0795817,-0.21394 -0.0795817,-0.0754 -0.22530919,-0.0754 z m -0.2087728,-0.17157 h 0.4712891 q 0.25941564,0 0.3917073,0.11783 0.13332519,0.11678 0.13332519,0.34313 0,0.22841 -0.13332519,0.3452 -0.13229166,0.11678 -0.3917073,0.11678 h -0.2625163 v 0.62012 h -0.2087728 z"
         style="font-size:2.11666656px;stroke-width:0.26458332"
         id="path7200" />
      <path
         d="m 0.11327625,255.52728 q -0.23047687,0 -0.31936033,0.0527 -0.0888835,0.0527 -0.0888835,0.17984 0,0.10128 0.0661458,0.16123 0.0671794,0.0589 0.18190103,0.0589 0.15812988,0 0.25321451,-0.11162 0.0961182,-0.11266 0.0961182,-0.29869 v -0.0424 z m 0.379305,-0.0785 v 0.66042 H 0.30241199 v -0.1757 q -0.0651123,0.10542 -0.16226399,0.15606 -0.09715169,0.0496 -0.23771158,0.0496 -0.17776692,0 -0.28318683,-0.0992 -0.10438639,-0.10025 -0.10438639,-0.26768 0,-0.19534 0.1302246,-0.29455 0.13125813,-0.0992 0.39067381,-0.0992 h 0.26665038 v -0.0186 q 0,-0.13125 -0.0868164,-0.20257 -0.0857829,-0.0723 -0.24184569,-0.0723 -0.09921874,0 -0.19326984,0.0238 -0.0940511,0.0238 -0.18086751,0.0713 v -0.1757 q 0.10438639,-0.0403 0.20257161,-0.06 0.09818521,-0.0207 0.19120279,-0.0207 0.25114744,0 0.37517087,0.13023 0.12402344,0.13022 0.12402344,0.39481 z"
         style="font-size:2.11666656px;stroke-width:0.26458332"
         id="path7202" />
      <path
         d="m 1.8496044,255.4105 v 0.69866 H 1.6594352 v -0.69246 q 0,-0.16433 -0.064079,-0.24598 -0.064079,-0.0816 -0.1922363,-0.0816 -0.1539958,0 -0.2428792,0.0982 -0.088884,0.0982 -0.088884,0.26769 v 0.65422 H 0.88015462 v -1.15755 H 1.0713574 v 0.17983 q 0.068213,-0.10438 0.1601969,-0.15606 0.093018,-0.0517 0.2139405,-0.0517 0.199471,0 0.3017903,0.12403 0.1023193,0.12299 0.1023193,0.36277 z"
         style="font-size:2.11666656px;stroke-width:0.26458332"
         id="path7204" />
    </g>
    <g
       aria-label="Low"
       style="font-style:normal;font-weight:normal;font-size:2.11666656px;line-height:1.25;font-family:sans-serif;letter-spacing:0px;word-spacing:0px;fill:#000000;fill-opacity:1;stroke:none;stroke-width:0.26458332"
       id="text5476">
      <path
         d="m -2.0240606,243.69936 h 0.2087728 v 1.36736 h 0.7513753 v 0.1757 h -0.9601481 z"
         style="font-size:2.11666656px;stroke-width:0.26458332"
         id="path7193" />
      <path
         d="m -0.4406948,244.21819 q -0.15296223,0 -0.24184569,0.11989 -0.0888834,0.11885 -0.0888834,0.32659 0,0.20774 0.0878499,0.32763 0.0888834,0.11886 0.24287921,0.11886 0.15192871,0 0.24081217,-0.11989 0.0888835,-0.11989 0.0888835,-0.3266 0,-0.20567 -0.0888835,-0.32556 -0.0888835,-0.12092 -0.24081217,-0.12092 z m 0,-0.16123 q 0.24804687,0 0.38964028,0.16123 0.14159342,0.16123 0.14159342,0.44648 0,0.28422 -0.14159342,0.44649 -0.14159341,0.16123 -0.38964028,0.16123 -0.24908039,0 -0.3906738,-0.16123 -0.14055989,-0.16227 -0.14055989,-0.44649 0,-0.28525 0.14055989,-0.44648 0.14159341,-0.16123 0.3906738,-0.16123 z"
         style="font-size:2.11666656px;stroke-width:0.26458332"
         id="path7195" />
      <path
         d="m 0.29621106,244.08486 h 0.19016926 l 0.23771158,0.90331 0.23667805,-0.90331 H 1.1850457 l 0.2377115,0.90331 0.2366781,-0.90331 h 0.1901692 l -0.3028238,1.15756 H 1.322505 l -0.2490804,-0.94878 -0.25011396,0.94878 h -0.2242757 z"
         style="font-size:2.11666656px;stroke-width:0.26458332"
         id="path7197" />
    </g>
    <g
       aria-label="Mid"
       style="font-style:normal;font-weight:normal;font-size:2.11666656px;line-height:1.25;font-family:sans-serif;letter-spacing:0px;word-spacing:0px;fill:#000000;fill-opacity:1;stroke:none;stroke-width:0.26458332"
       id="text5480">
      <path
         d="m -1.50833,239.22032 h 0.3110921 l 0.39377442,1.05007 0.39584146,-1.05007 h 0.3110921 v 1.54306 h -0.20360513 v -1.35495 l -0.39790851,1.05833 h -0.2098063 l -0.39790854,-1.05833 v 1.35495 H -1.50833 Z"
         style="font-size:2.11666656px;stroke-width:0.26458332"
         id="path7186" />
      <path
         d="m 0.31068029,239.60583 h 0.19016926 v 1.15755 H 0.31068029 Z m 0,-0.45062 h 0.19016926 v 0.24081 H 0.31068029 Z"
         style="font-size:2.11666656px;stroke-width:0.26458332"
         id="path7188" />
      <path
         d="m 1.6594352,239.78153 v -0.62632 h 0.1901693 v 1.60817 H 1.6594352 v -0.17363 q -0.059945,0.10335 -0.1519287,0.15399 -0.090951,0.0496 -0.219108,0.0496 -0.2098063,0 -0.34209801,-0.16743 -0.13125813,-0.16743 -0.13125813,-0.44028 0,-0.27285 0.13125813,-0.44028 0.13229171,-0.16744 0.34209801,-0.16744 0.1281575,0 0.219108,0.0506 0.091984,0.0496 0.1519287,0.15296 z m -0.6480224,0.40411 q 0,0.20981 0.085783,0.3297 0.086816,0.11885 0.2377115,0.11885 0.1508952,0 0.2377116,-0.11885 0.086816,-0.11989 0.086816,-0.3297 0,-0.20981 -0.086816,-0.32866 -0.086816,-0.11989 -0.2377116,-0.11989 -0.1508951,0 -0.2377115,0.11989 -0.085783,0.11885 -0.085783,0.32866 z"
         style="font-size:2.11666656px;stroke-width:0.26458332"
         id="path7190" />
    </g>
    <g
       aria-label="Hi"
       style="font-style:normal;font-weight:normal;font-size:2.11666656px;line-height:1.25;font-family:sans-serif;letter-spacing:0px;word-spacing:0px;fill:#000000;fill-opacity:1;stroke:none;stroke-width:0.26458332"
       id="text5484">
      <path
         d="m 0.07606941,233.92865 h 0.20877278 v 0.63252 H 1.0434522 v -0.63252 h 0.2087727 v 1.54306 H 1.0434522 v -0.73484 H 0.28484219 v 0.73484 H 0.07606941 Z"
         style="font-size:2.11666656px;stroke-width:0.26458332"
         id="path7181" />
      <path
         d="m 1.6594352,234.31416 h 0.1901693 v 1.15755 H 1.6594352 Z m 0,-0.45062 h 0.1901693 v 0.24081 H 1.6594352 Z"
         style="font-size:2.11666656px;stroke-width:0.26458332"
         id="path7183" />
    </g>
    <g
       aria-label="Snd1"
       style="font-style:normal;font-weight:normal;font-size:2.11666656px;line-height:1.25;font-family:sans-serif;letter-spacing:0px;word-spacing:0px;fill:#000000;fill-opacity:1;stroke:none;stroke-width:0.26458332"
       id="text5496">
      <path
         d="m -2.1997608,204.06258 v 0.2036 q -0.1188557,-0.0568 -0.2242757,-0.0847 -0.1054199,-0.0279 -0.2036051,-0.0279 -0.1705322,0 -0.2635498,0.0661 -0.091984,0.0661 -0.091984,0.18811 0,0.10232 0.060978,0.15503 0.062012,0.0517 0.2335774,0.0837 l 0.1260905,0.0258 q 0.2335775,0.0444 0.344165,0.1571 0.1116211,0.11162 0.1116211,0.29972 0,0.22427 -0.1508952,0.34003 -0.1498616,0.11576 -0.4402831,0.11576 -0.1095541,0 -0.2335775,-0.0248 -0.1229899,-0.0248 -0.2552816,-0.0734 v -0.21497 q 0.1271241,0.0713 0.2490804,0.10748 0.1219564,0.0362 0.2397787,0.0362 0.1788004,0 0.2759521,-0.0703 0.097152,-0.0703 0.097152,-0.20051 0,-0.11369 -0.07028,-0.17777 -0.069246,-0.0641 -0.2284098,-0.0961 l -0.127124,-0.0248 q -0.2335775,-0.0465 -0.3379638,-0.14573 -0.1043864,-0.0992 -0.1043864,-0.27595 0,-0.20464 0.1436604,-0.32246 0.144694,-0.11782 0.3979086,-0.11782 0.1085205,0 0.2211751,0.0196 0.1126546,0.0196 0.2304768,0.0589 z"
         style="font-size:2.11666656px;stroke-width:0.26458332"
         id="path7172" />
      <path
         d="m -0.82723479,204.85633 v 0.69866 H -1.0174041 v -0.69246 q 0,-0.16433 -0.064079,-0.24598 -0.064079,-0.0816 -0.1922363,-0.0816 -0.1539958,0 -0.2428793,0.0982 -0.088883,0.0982 -0.088883,0.26768 v 0.65422 h -0.1912028 v -1.15755 h 0.1912028 v 0.17983 q 0.068213,-0.10438 0.1601969,-0.15606 0.093018,-0.0517 0.2139404,-0.0517 0.199471,0 0.30179038,0.12402 0.10231933,0.12299 0.10231933,0.36277 z"
         style="font-size:2.11666656px;stroke-width:0.26458332"
         id="path7174" />
      <path
         d="m 0.31584782,204.57314 v -0.62632 h 0.19016926 v 1.60817 H 0.31584782 v -0.17363 q -0.0599447,0.10335 -0.1519287,0.154 -0.09095052,0.0496 -0.21910806,0.0496 -0.20980631,0 -0.34209796,-0.16744 -0.13125814,-0.16743 -0.13125814,-0.44028 0,-0.27285 0.13125814,-0.44028 0.13229165,-0.16743 0.34209796,-0.16743 0.12815754,0 0.21910806,0.0506 0.091984,0.0496 0.1519287,0.15296 z m -0.64802242,0.40411 q 0,0.20981 0.0857829,0.3297 0.0868164,0.11885 0.23771158,0.11885 0.15089517,0 0.23771157,-0.11885 0.0868164,-0.11989 0.0868164,-0.3297 0,-0.20981 -0.0868164,-0.32866 -0.0868164,-0.11989 -0.23771157,-0.11989 -0.15089518,0 -0.23771158,0.11989 -0.0857829,0.11885 -0.0857829,0.32866 z"
         style="font-size:2.11666656px;stroke-width:0.26458332"
         id="path7176" />
      <path
         d="M 0.96076989,205.37929 H 1.3018343 v -1.17719 l -0.37103674,0.0744 v -0.19017 l 0.36896974,-0.0744 H 1.50854 v 1.36736 h 0.3410645 v 0.1757 H 0.96076989 Z"
         style="font-size:2.11666656px;stroke-width:0.26458332"
         id="path7178" />
    </g>
    <g
       aria-label="Snd2"
       style="font-style:normal;font-weight:normal;font-size:2.11666656px;line-height:1.25;font-family:sans-serif;letter-spacing:0px;word-spacing:0px;fill:#000000;fill-opacity:1;stroke:none;stroke-width:0.26458332"
       id="text5500">
      <path
         d="m -2.1832243,214.16734 v 0.20361 q -0.1188558,-0.0568 -0.2242757,-0.0847 -0.1054199,-0.0279 -0.2036051,-0.0279 -0.1705322,0 -0.2635498,0.0662 -0.091984,0.0661 -0.091984,0.1881 0,0.10232 0.060978,0.15503 0.062012,0.0517 0.2335775,0.0837 l 0.1260905,0.0258 q 0.2335774,0.0444 0.344165,0.15709 0.1116211,0.11162 0.1116211,0.29973 0,0.22427 -0.1508952,0.34003 -0.1498616,0.11575 -0.4402832,0.11575 -0.109554,0 -0.2335774,-0.0248 -0.1229899,-0.0248 -0.2552816,-0.0734 v -0.21498 q 0.127124,0.0713 0.2490804,0.10749 0.1219564,0.0362 0.2397786,0.0362 0.1788005,0 0.2759522,-0.0703 0.097152,-0.0703 0.097152,-0.2005 0,-0.11369 -0.07028,-0.17777 -0.069246,-0.0641 -0.2284098,-0.0961 l -0.127124,-0.0248 q -0.2335775,-0.0465 -0.3379639,-0.14573 -0.1043864,-0.0992 -0.1043864,-0.27595 0,-0.20464 0.1436605,-0.32246 0.144694,-0.11782 0.3979085,-0.11782 0.1085205,0 0.2211751,0.0196 0.1126547,0.0196 0.2304769,0.0589 z"
         style="font-size:2.11666656px;stroke-width:0.26458332"
         id="path7163" />
      <path
         d="m -0.81069832,214.96109 v 0.69867 H -1.0008676 v -0.69246 q 0,-0.16434 -0.064079,-0.24598 -0.064079,-0.0816 -0.1922364,-0.0816 -0.1539957,0 -0.2428792,0.0982 -0.088883,0.0982 -0.088883,0.26769 v 0.65422 h -0.1912028 v -1.15755 h 0.1912028 v 0.17983 q 0.068213,-0.10438 0.1601969,-0.15606 0.093018,-0.0517 0.2139404,-0.0517 0.199471,0 0.30179035,0.12403 0.10231933,0.12299 0.10231933,0.36276 z"
         style="font-size:2.11666656px;stroke-width:0.26458332"
         id="path7165" />
      <path
         d="m 0.3323843,214.67791 v -0.62632 h 0.19016926 v 1.60817 H 0.3323843 v -0.17363 q -0.0599447,0.10335 -0.15192871,0.15399 -0.09095051,0.0496 -0.21910806,0.0496 -0.2098063,0 -0.34209796,-0.16743 -0.13125813,-0.16743 -0.13125813,-0.44028 0,-0.27285 0.13125813,-0.44029 0.13229166,-0.16743 0.34209796,-0.16743 0.12815755,0 0.21910806,0.0506 0.091984,0.0496 0.15192871,0.15296 z m -0.64802243,0.40411 q 0,0.2098 0.0857829,0.32969 0.0868164,0.11886 0.23771158,0.11886 0.15089517,0 0.23771158,-0.11886 0.0868164,-0.11989 0.0868164,-0.32969 0,-0.20981 -0.0868164,-0.32867 -0.0868164,-0.11988 -0.23771158,-0.11988 -0.15089517,0 -0.23771158,0.11988 -0.0857829,0.11886 -0.0857829,0.32867 z"
         style="font-size:2.11666656px;stroke-width:0.26458332"
         id="path7167" />
      <path
         d="m 1.1209668,215.48406 h 0.7286377 v 0.1757 H 0.86981939 v -0.1757 q 0.11885579,-0.12299 0.32349441,-0.3297 0.2056722,-0.20774 0.2583822,-0.26768 0.1002523,-0.11265 0.1395264,-0.19017 0.040308,-0.0785 0.040308,-0.15399 0,-0.12299 -0.086816,-0.20051 -0.085783,-0.0775 -0.2242757,-0.0775 -0.098185,0 -0.2077393,0.0341 -0.1085205,0.0341 -0.23254392,0.10336 v -0.21084 q 0.12609052,-0.0507 0.23564452,-0.0765 0.109554,-0.0258 0.2005045,-0.0258 0.2397787,0 0.3824056,0.11989 0.142627,0.11988 0.142627,0.32039 0,0.0951 -0.036174,0.18087 -0.03514,0.0848 -0.1291911,0.2005 -0.025838,0.03 -0.1643311,0.17363 -0.1384928,0.14263 -0.3906738,0.39998 z"
         style="font-size:2.11666656px;stroke-width:0.26458332"
         id="path7169" />
    </g>
    <g
       aria-label="Snd3"
       style="font-style:normal;font-weight:normal;font-size:2.11666656px;line-height:1.25;font-family:sans-serif;letter-spacing:0px;word-spacing:0px;fill:#000000;fill-opacity:1;stroke:none;stroke-width:0.26458332"
       id="text5504">
      <path
         d="m -2.2255989,223.97577 v 0.20361 q -0.1188558,-0.0568 -0.2242757,-0.0848 -0.1054199,-0.0279 -0.2036051,-0.0279 -0.1705322,0 -0.2635498,0.0661 -0.091984,0.0661 -0.091984,0.1881 0,0.10232 0.060978,0.15503 0.062012,0.0517 0.2335775,0.0837 l 0.1260905,0.0258 q 0.2335774,0.0444 0.344165,0.1571 0.1116211,0.11162 0.1116211,0.29972 0,0.22428 -0.1508952,0.34003 -0.1498616,0.11576 -0.4402832,0.11576 -0.109554,0 -0.2335774,-0.0248 -0.1229899,-0.0248 -0.2552816,-0.0734 V 225.185 q 0.127124,0.0713 0.2490804,0.10749 0.1219564,0.0362 0.2397786,0.0362 0.1788005,0 0.2759522,-0.0703 0.097152,-0.0703 0.097152,-0.20051 0,-0.11368 -0.07028,-0.17776 -0.069246,-0.0641 -0.2284098,-0.0961 l -0.127124,-0.0248 q -0.2335775,-0.0465 -0.3379639,-0.14572 -0.1043864,-0.0992 -0.1043864,-0.27595 0,-0.20464 0.1436605,-0.32247 0.144694,-0.11782 0.3979085,-0.11782 0.1085205,0 0.2211751,0.0196 0.1126547,0.0196 0.2304769,0.0589 z"
         style="font-size:2.11666656px;stroke-width:0.26458332"
         id="path7154" />
      <path
         d="m -0.85307293,224.76952 v 0.69867 H -1.0432422 v -0.69247 q 0,-0.16433 -0.064079,-0.24598 -0.064079,-0.0816 -0.1922363,-0.0816 -0.1539957,0 -0.2428792,0.0982 -0.088884,0.0982 -0.088884,0.26768 v 0.65423 h -0.1912027 v -1.15756 H -1.63132 v 0.17984 q 0.068213,-0.10439 0.160197,-0.15607 0.093017,-0.0517 0.2139404,-0.0517 0.199471,0 0.30179034,0.12402 0.10231933,0.12299 0.10231933,0.36277 z"
         style="font-size:2.11666656px;stroke-width:0.26458332"
         id="path7156" />
      <path
         d="m 0.29000969,224.48633 v -0.62632 h 0.19016926 v 1.60818 H 0.29000969 v -0.17364 q -0.0599447,0.10336 -0.15192871,0.154 -0.09095051,0.0496 -0.21910806,0.0496 -0.2098063,0 -0.34209796,-0.16743 -0.13125813,-0.16744 -0.13125813,-0.44029 0,-0.27285 0.13125813,-0.44028 0.13229166,-0.16743 0.34209796,-0.16743 0.12815755,0 0.21910806,0.0506 0.0919841,0.0496 0.15192871,0.15296 z m -0.64802243,0.40411 q 0,0.20981 0.0857829,0.3297 0.0868164,0.11885 0.23771158,0.11885 0.15089517,0 0.23771157,-0.11885 0.0868164,-0.11989 0.0868164,-0.3297 0,-0.2098 -0.0868164,-0.32866 -0.0868164,-0.11989 -0.23771157,-0.11989 -0.15089518,0 -0.23771158,0.11989 -0.0857829,0.11886 -0.0857829,0.32866 z"
         style="font-size:2.11666656px;stroke-width:0.26458332"
         id="path7158" />
      <path
         d="m 1.5312778,224.63619 q 0.1498616,0.032 0.2335774,0.13333 0.084749,0.10129 0.084749,0.25011 0,0.22841 -0.1570964,0.35347 -0.1570963,0.12506 -0.4464843,0.12506 -0.097152,0 -0.2005046,-0.0196 -0.10231931,-0.0186 -0.21187334,-0.0568 v -0.20154 q 0.0868164,0.0506 0.19016924,0.0765 0.1033529,0.0258 0.2160075,0.0258 0.1963704,0 0.2986898,-0.0775 0.1033528,-0.0775 0.1033528,-0.22531 0,-0.13642 -0.096118,-0.2129 -0.095085,-0.0775 -0.2656169,-0.0775 h -0.179834 v -0.17156 h 0.1881022 q 0.1539958,0 0.2356446,-0.061 0.081649,-0.062 0.081649,-0.17777 0,-0.11885 -0.084749,-0.1819 -0.083716,-0.0641 -0.2408122,-0.0641 -0.085783,0 -0.1839681,0.0186 -0.0981852,0.0186 -0.21600746,0.0579 v -0.18603 q 0.11885579,-0.0331 0.22220866,-0.0496 0.1043864,-0.0165 0.1963704,-0.0165 0.2377116,0 0.3762044,0.10852 0.1384929,0.10749 0.1384929,0.29146 0,0.12816 -0.073381,0.21704 -0.07338,0.0879 -0.2087727,0.12195 z"
         style="font-size:2.11666656px;stroke-width:0.26458332"
         id="path7160" />
    </g>
    <g
       aria-label="cv"
       style="font-style:normal;font-weight:normal;font-size:2.11666656px;line-height:1.25;font-family:sans-serif;letter-spacing:0px;word-spacing:0px;fill:#000000;fill-opacity:1;stroke:none;stroke-width:0.26458332"
       id="text5508">
      <path
         d="m 0.5266879,249.1753 v 0.17776 q -0.0806152,-0.0444 -0.16226399,-0.0661 -0.0806152,-0.0227 -0.16329751,-0.0227 -0.18500162,0 -0.28732095,0.11782 -0.10231933,0.11679 -0.10231933,0.32866 0,0.21188 0.10231933,0.3297 0.10231933,0.11679 0.28732095,0.11679 0.0826823,0 0.16329751,-0.0217 0.0816488,-0.0227 0.16226399,-0.0672 v 0.1757 q -0.0795817,0.0372 -0.16536457,0.0558 -0.0847494,0.0186 -0.18086751,0.0186 -0.26148273,0 -0.41547849,-0.16433 -0.15399576,-0.16433 -0.15399576,-0.44339 0,-0.28318 0.15502929,-0.44545 0.15606282,-0.16226 0.42684731,-0.16226 0.0878499,0 0.17156574,0.0186 0.0837158,0.0176 0.16226399,0.0537 z"
         style="font-size:2.11666656px;stroke-width:0.26458332"
         id="path7149" />
      <path
         d="M 0.72305832,249.13085 H 0.9245964 l 0.361735,0.97152 0.361735,-0.97152 h 0.2015381 l -0.434082,1.15756 H 1.1571403 Z"
         style="font-size:2.11666656px;stroke-width:0.26458332"
         id="path7151" />
    </g>
    <g
       aria-label="cv"
       style="font-style:normal;font-weight:normal;font-size:2.11666656px;line-height:1.25;font-family:sans-serif;letter-spacing:0px;word-spacing:0px;fill:#000000;fill-opacity:1;stroke:none;stroke-width:0.26458332"
       id="text5512">
      <path
         d="m 0.5266879,229.06693 v 0.17777 q -0.0806152,-0.0444 -0.16226399,-0.0661 -0.0806152,-0.0227 -0.16329751,-0.0227 -0.18500162,0 -0.28732095,0.11782 -0.10231933,0.11679 -0.10231933,0.32867 0,0.21187 0.10231933,0.32969 0.10231933,0.11679 0.28732095,0.11679 0.0826823,0 0.16329751,-0.0217 0.0816488,-0.0227 0.16226399,-0.0672 v 0.1757 q -0.0795817,0.0372 -0.16536457,0.0558 -0.0847494,0.0186 -0.18086751,0.0186 -0.26148273,0 -0.41547849,-0.16433 -0.15399576,-0.16433 -0.15399576,-0.44338 0,-0.28319 0.15502929,-0.44545 0.15606282,-0.16227 0.42684731,-0.16227 0.0878499,0 0.17156574,0.0186 0.0837158,0.0176 0.16226399,0.0538 z"
         style="font-size:2.11666656px;stroke-width:0.26458332"
         id="path7144" />
      <path
         d="M 0.72305832,229.02249 H 0.9245964 l 0.361735,0.97151 0.361735,-0.97151 h 0.2015381 l -0.434082,1.15755 H 1.1571403 Z"
         style="font-size:2.11666656px;stroke-width:0.26458332"
         id="path7146" />
    </g>
    <g
       aria-label="cv"
       style="font-style:normal;font-weight:normal;font-size:2.11666656px;line-height:1.25;font-family:sans-serif;letter-spacing:0px;word-spacing:0px;fill:#000000;fill-opacity:1;stroke:none;stroke-width:0.26458332"
       id="text5516">
      <path
         d="m 0.5266879,219.01274 v 0.17777 q -0.0806152,-0.0444 -0.16226399,-0.0661 -0.0806152,-0.0227 -0.16329751,-0.0227 -0.18500162,0 -0.28732095,0.11782 -0.10231933,0.11679 -0.10231933,0.32866 0,0.21188 0.10231933,0.3297 0.10231933,0.11679 0.28732095,0.11679 0.0826823,0 0.16329751,-0.0217 0.0816488,-0.0227 0.16226399,-0.0672 v 0.1757 q -0.0795817,0.0372 -0.16536457,0.0558 -0.0847494,0.0186 -0.18086751,0.0186 -0.26148273,0 -0.41547849,-0.16433 -0.15399576,-0.16434 -0.15399576,-0.44339 0,-0.28318 0.15502929,-0.44545 0.15606282,-0.16226 0.42684731,-0.16226 0.0878499,0 0.17156574,0.0186 0.0837158,0.0176 0.16226399,0.0537 z"
         style="font-size:2.11666656px;stroke-width:0.26458332"
         id="path7139" />
      <path
         d="M 0.72305832,218.9683 H 0.9245964 l 0.361735,0.97152 0.361735,-0.97152 h 0.2015381 l -0.434082,1.15755 H 1.1571403 Z"
         style="font-size:2.11666656px;stroke-width:0.26458332"
         id="path7141" />
    </g>
    <g
       aria-label="cv"
       style="font-style:normal;font-weight:normal;font-size:2.11666656px;line-height:1.25;font-family:sans-serif;letter-spacing:0px;word-spacing:0px;fill:#000000;fill-opacity:1;stroke:none;stroke-width:0.26458332"
       id="text5520">
      <path
         d="m 0.5266879,208.95864 v 0.17776 q -0.0806152,-0.0444 -0.16226399,-0.0661 -0.0806152,-0.0227 -0.16329751,-0.0227 -0.18500162,0 -0.28732095,0.11782 -0.10231933,0.11679 -0.10231933,0.32866 0,0.21188 0.10231933,0.3297 0.10231933,0.11679 0.28732095,0.11679 0.0826823,0 0.16329751,-0.0217 0.0816488,-0.0227 0.16226399,-0.0672 v 0.1757 q -0.0795817,0.0372 -0.16536457,0.0558 -0.0847494,0.0186 -0.18086751,0.0186 -0.26148273,0 -0.41547849,-0.16433 -0.15399576,-0.16433 -0.15399576,-0.44339 0,-0.28318 0.15502929,-0.44545 0.15606282,-0.16226 0.42684731,-0.16226 0.0878499,0 0.17156574,0.0186 0.0837158,0.0176 0.16226399,0.0538 z"
         style="font-size:2.11666656px;stroke-width:0.26458332"
         id="path7134" />
      <path
         d="M 0.72305832,208.91419 H 0.9245964 l 0.361735,0.97152 0.361735,-0.97152 h 0.2015381 l -0.434082,1.15756 H 1.1571403 Z"
         style="font-size:2.11666656px;stroke-width:0.26458332"
         id="path7136" />
    </g>
    <g
       aria-label="Send"
       transform="rotate(-90)"
       style="font-style:normal;font-weight:normal;font-size:2.11666656px;line-height:1.25;font-family:sans-serif;letter-spacing:0px;word-spacing:0px;fill:#ffffff;fill-opacity:1;stroke:none;stroke-width:0.26458332"
       id="text5549">
      <path
         d="m -208.39412,68.11892 v 0.203606 q -0.11886,-0.05684 -0.22428,-0.08475 -0.10542,-0.0279 -0.2036,-0.0279 -0.17054,0 -0.26355,0.06615 -0.092,0.06615 -0.092,0.188102 0,0.102319 0.061,0.155029 0.062,0.05168 0.23358,0.08372 l 0.12609,0.02584 q 0.23358,0.04444 0.34416,0.157097 0.11162,0.111621 0.11162,0.299723 0,0.224276 -0.15089,0.340031 -0.14986,0.115755 -0.44028,0.115755 -0.10956,0 -0.23358,-0.02481 -0.12299,-0.0248 -0.25528,-0.07338 v -0.214974 q 0.12712,0.07131 0.24908,0.107487 0.12195,0.03617 0.23978,0.03617 0.1788,0 0.27595,-0.07028 0.0971,-0.07028 0.0971,-0.200504 0,-0.113688 -0.0703,-0.177767 -0.0693,-0.06408 -0.22841,-0.09612 l -0.12712,-0.02481 q -0.23358,-0.04651 -0.33797,-0.145727 -0.10438,-0.09922 -0.10438,-0.275953 0,-0.204638 0.14366,-0.32246 0.14469,-0.117823 0.3979,-0.117823 0.10853,0 0.22118,0.01964 0.11265,0.01964 0.23048,0.05891 z"
         style="font-size:2.11666656px;fill:#ffffff;stroke-width:0.26458332"
         id="path7302" />
      <path
         d="m -206.99369,68.985017 v 0.09302 h -0.87437 q 0.0124,0.19637 0.11782,0.299723 0.10646,0.10232 0.29559,0.10232 0.10956,0 0.21188,-0.02687 0.10335,-0.02687 0.20464,-0.08061 v 0.179834 q -0.10232,0.04341 -0.20981,0.06615 -0.10749,0.02274 -0.21807,0.02274 -0.27699,0 -0.43925,-0.16123 -0.16123,-0.161231 -0.16123,-0.436149 0,-0.284221 0.15296,-0.450619 0.15399,-0.167432 0.41444,-0.167432 0.23358,0 0.36897,0.150896 0.13643,0.149861 0.13643,0.408243 z m -0.19017,-0.05581 q -0.002,-0.156063 -0.0879,-0.249081 -0.0847,-0.09302 -0.22531,-0.09302 -0.15916,0 -0.25528,0.08992 -0.0951,0.08992 -0.10956,0.253214 z"
         style="font-size:2.11666656px;fill:#ffffff;stroke-width:0.26458332"
         id="path7304" />
      <path
         d="m -205.71935,68.91267 v 0.698666 h -0.19017 v -0.692464 q 0,-0.164331 -0.0641,-0.24598 -0.0641,-0.08165 -0.19224,-0.08165 -0.15399,0 -0.24288,0.09819 -0.0889,0.09818 -0.0889,0.267684 v 0.654224 h -0.1912 v -1.157552 h 0.1912 v 0.179834 q 0.0682,-0.104387 0.1602,-0.156063 0.093,-0.05168 0.21394,-0.05168 0.19947,0 0.30179,0.124024 0.10232,0.12299 0.10232,0.362768 z"
         style="font-size:2.11666656px;fill:#ffffff;stroke-width:0.26458332"
         id="path7306" />
      <path
         d="m -204.57627,68.629484 v -0.626319 h 0.19017 v 1.608171 h -0.19017 v -0.173633 q -0.0599,0.103353 -0.15193,0.153996 -0.091,0.04961 -0.21911,0.04961 -0.2098,0 -0.34209,-0.167432 -0.13126,-0.167431 -0.13126,-0.440283 0,-0.272851 0.13126,-0.440283 0.13229,-0.167432 0.34209,-0.167432 0.12816,0 0.21911,0.05064 0.092,0.04961 0.15193,0.152963 z m -0.64802,0.404109 q 0,0.209807 0.0858,0.329696 0.0868,0.118856 0.23771,0.118856 0.1509,0 0.23771,-0.118856 0.0868,-0.119889 0.0868,-0.329696 0,-0.209806 -0.0868,-0.328662 -0.0868,-0.119889 -0.23771,-0.119889 -0.15089,0 -0.23771,0.119889 -0.0858,0.118856 -0.0858,0.328662 z"
         style="font-size:2.11666656px;fill:#ffffff;stroke-width:0.26458332"
         id="path7308" />
    </g>
    <g
       aria-label="Return"
       transform="rotate(-90)"
       style="font-style:normal;font-weight:normal;font-size:2.11666656px;line-height:1.25;font-family:sans-serif;letter-spacing:0px;word-spacing:0px;fill:#ffffff;fill-opacity:1;stroke:none;stroke-width:0.26458332"
       id="text5553">
      <path
         d="m -224.99157,68.887866 q 0.0672,0.02274 0.13023,0.09715 0.0641,0.07441 0.12815,0.204639 l 0.21188,0.42168 h -0.22428 l -0.1974,-0.395842 q -0.0765,-0.155029 -0.14883,-0.205672 -0.0713,-0.05064 -0.19534,-0.05064 h -0.22737 v 0.652157 h -0.20878 v -1.543058 h 0.47129 q 0.26459,0 0.39481,0.110587 0.13023,0.110588 0.13023,0.33383 0,0.145727 -0.0682,0.241846 -0.0672,0.09612 -0.19637,0.133325 z m -0.52296,-0.648023 v 0.54777 h 0.26251 q 0.1509,0 0.22738,-0.06925 0.0775,-0.07028 0.0775,-0.205672 0,-0.135392 -0.0775,-0.203605 -0.0765,-0.06925 -0.22738,-0.06925 z"
         style="font-size:2.11666656px;fill:#ffffff;stroke-width:0.26458332"
         id="path7289" />
      <path
         d="m -223.36273,68.985017 v 0.09302 h -0.87436 q 0.0124,0.19637 0.11782,0.299723 0.10645,0.10232 0.29559,0.10232 0.10955,0 0.21187,-0.02687 0.10336,-0.02687 0.20464,-0.08061 v 0.179834 q -0.10232,0.04341 -0.20981,0.06615 -0.10748,0.02274 -0.21807,0.02274 -0.27699,0 -0.43925,-0.16123 -0.16123,-0.161231 -0.16123,-0.436149 0,-0.284221 0.15296,-0.450619 0.154,-0.167432 0.41445,-0.167432 0.23357,0 0.36897,0.150896 0.13642,0.149861 0.13642,0.408243 z m -0.19017,-0.05581 q -0.002,-0.156063 -0.0879,-0.249081 -0.0848,-0.09302 -0.22531,-0.09302 -0.15916,0 -0.25528,0.08992 -0.0951,0.08992 -0.10955,0.253214 z"
         style="font-size:2.11666656px;fill:#ffffff;stroke-width:0.26458332"
         id="path7291" />
      <path
         d="m -222.86043,68.125122 v 0.328662 h 0.39171 v 0.147794 h -0.39171 v 0.628386 q 0,0.141593 0.0382,0.181901 0.0393,0.04031 0.15813,0.04031 h 0.19534 v 0.159164 h -0.19534 q -0.22014,0 -0.30386,-0.08165 -0.0837,-0.08268 -0.0837,-0.299723 v -0.628386 h -0.13953 v -0.147794 h 0.13953 v -0.328662 z"
         style="font-size:2.11666656px;fill:#ffffff;stroke-width:0.26458332"
         id="path7293" />
      <path
         d="m -222.23721,69.154516 v -0.700732 h 0.19016 v 0.693497 q 0,0.164331 0.0641,0.247014 0.0641,0.08165 0.19224,0.08165 0.154,0 0.24288,-0.09819 0.0899,-0.09819 0.0899,-0.267684 v -0.65629 h 0.19017 v 1.157552 h -0.19017 v -0.177767 q -0.0692,0.10542 -0.16123,0.157096 -0.0909,0.05064 -0.21188,0.05064 -0.19947,0 -0.30282,-0.124023 -0.10335,-0.124024 -0.10335,-0.362769 z"
         style="font-size:2.11666656px;fill:#ffffff;stroke-width:0.26458332"
         id="path7295" />
      <path
         d="m -220.20323,68.631551 q -0.032,-0.0186 -0.0703,-0.02687 -0.0372,-0.0093 -0.0827,-0.0093 -0.16123,0 -0.24805,0.10542 -0.0858,0.104386 -0.0858,0.300757 v 0.609782 h -0.1912 v -1.157552 h 0.1912 v 0.179834 q 0.0599,-0.10542 0.15606,-0.156063 0.0961,-0.05168 0.23358,-0.05168 0.0196,0 0.0434,0.0031 0.0238,0.0021 0.0527,0.0072 z"
         style="font-size:2.11666656px;fill:#ffffff;stroke-width:0.26458332"
         id="path7297" />
      <path
         d="m -219.07462,68.91267 v 0.698666 h -0.19017 v -0.692464 q 0,-0.164331 -0.0641,-0.24598 -0.0641,-0.08165 -0.19223,-0.08165 -0.154,0 -0.24288,0.09819 -0.0889,0.09818 -0.0889,0.267684 v 0.654224 h -0.19121 v -1.157552 h 0.19121 v 0.179834 q 0.0682,-0.104387 0.16019,-0.156063 0.093,-0.05168 0.21394,-0.05168 0.19947,0 0.30179,0.124024 0.10232,0.12299 0.10232,0.362768 z"
         style="font-size:2.11666656px;fill:#ffffff;stroke-width:0.26458332"
         id="path7299" />
    </g>
    <rect
       style="fill:#c8c4b7;fill-opacity:1;stroke:none;stroke-width:0.26458332;stroke-opacity:0.68020301"
       id="rect5568"
       width="0.93544334"
       height="1.3363476"
       x="97.428856"
       y="240.87877" />
    <text
       xml:space="preserve"
       style="font-style:normal;font-weight:normal;font-size:5.64444447px;line-height:1.25;font-family:sans-serif;letter-spacing:0px;word-spacing:0px;fill:#000000;fill-opacity:1;stroke:none;stroke-width:0.26458332"
       x="71.513092"
       y="287.39938"
       id="text6896"><tspan
         sodipodi:role="line"
         id="tspan6894"
         x="71.513092"
         y="292.3934"
         style="stroke-width:0.26458332" /></text>
    <g
       aria-label="Sends"
       style="font-style:normal;font-variant:normal;font-weight:bold;font-stretch:normal;font-size:4.58611107px;line-height:1.25;font-family:Seravek;-inkscape-font-specification:'Seravek Bold';letter-spacing:0px;word-spacing:0px;fill:#ffffff;fill-opacity:1;stroke:none;stroke-width:0.26458332"
       id="text6900">
      <path
         d="m 76.010419,291.35986 q 0,0.20178 -0.08255,0.38064 -0.07796,0.17427 -0.229306,0.30727 -0.151342,0.12841 -0.366889,0.20638 -0.215547,0.0734 -0.490714,0.0734 -0.252236,0 -0.504472,-0.055 -0.252236,-0.055 -0.467783,-0.16051 l 0.151341,-0.57327 q 0.160514,0.078 0.362303,0.13759 0.201789,0.055 0.435681,0.055 0.192616,0 0.316441,-0.0688 0.123825,-0.0734 0.123825,-0.23389 0,-0.11466 -0.110066,-0.20638 -0.105481,-0.0963 -0.38982,-0.20179 -0.449439,-0.16968 -0.655814,-0.38523 -0.206375,-0.22013 -0.206375,-0.55951 0,-0.44485 0.288925,-0.67874 0.293512,-0.23389 0.807156,-0.23389 0.261408,0 0.499886,0.0596 0.238478,0.055 0.403578,0.14675 l -0.128411,0.56409 q -0.160514,-0.078 -0.353131,-0.12382 -0.18803,-0.0505 -0.389819,-0.0505 -0.169686,0 -0.275167,0.0596 -0.100894,0.055 -0.100894,0.19262 0,0.0642 0.01834,0.11007 0.01835,0.0459 0.06421,0.0871 0.05045,0.0413 0.137583,0.0826 0.08714,0.0413 0.220133,0.0963 0.192617,0.078 0.362303,0.1651 0.169686,0.0871 0.293511,0.20179 0.123825,0.11465 0.192617,0.26141 0.07338,0.14675 0.07338,0.34396 z"
         style="font-style:normal;font-variant:normal;font-weight:bold;font-stretch:normal;font-size:4.58611107px;font-family:Seravek;-inkscape-font-specification:'Seravek Bold';stroke-width:0.26458332;fill:#ffffff"
         id="path7123" />
      <path
         d="m 77.405958,289.97944 q 0.440267,0 0.697089,0.2614 0.256822,0.25683 0.256822,0.71544 0,0.17427 -0.04127,0.37147 h -1.302456 q 0.0092,0.20638 0.137584,0.33479 0.132997,0.12382 0.403578,0.12382 0.1651,0 0.343958,-0.0275 0.183444,-0.0321 0.316442,-0.0917 l 0.09172,0.47237 q -0.174272,0.0871 -0.394406,0.133 -0.215547,0.0459 -0.449439,0.0459 -0.293511,0 -0.51823,-0.0826 -0.22472,-0.0871 -0.376061,-0.23848 -0.151342,-0.15134 -0.229306,-0.3623 -0.07796,-0.21096 -0.07796,-0.46778 0,-0.27517 0.07796,-0.4953 0.08255,-0.22013 0.229306,-0.37148 0.151341,-0.15592 0.362302,-0.23847 0.210962,-0.0825 0.47237,-0.0825 z m -0.02293,0.46778 q -0.174272,0 -0.27058,0.11465 -0.09172,0.11007 -0.09172,0.30727 h 0.651227 q 0.0092,-0.0367 0.0092,-0.078 0,-0.14676 -0.07796,-0.24307 -0.07796,-0.10089 -0.220134,-0.10089 z"
         style="font-style:normal;font-variant:normal;font-weight:bold;font-stretch:normal;font-size:4.58611107px;font-family:Seravek;-inkscape-font-specification:'Seravek Bold';stroke-width:0.26458332;fill:#ffffff"
         id="path7125" />
      <path
         d="m 78.775485,292.27249 v -2.24719 h 0.706261 v 0.29351 q 0.105481,-0.18345 0.270581,-0.26141 0.169686,-0.078 0.357717,-0.078 0.224719,0 0.380647,0.0963 0.155928,0.0917 0.252236,0.24765 0.100894,0.15593 0.142169,0.36231 0.04586,0.20179 0.04586,0.42651 v 1.16028 H 80.19718 v -1.17404 q 0,-0.27976 -0.08714,-0.40817 -0.08714,-0.13299 -0.265995,-0.13299 -0.114653,0 -0.201789,0.0504 -0.08255,0.0505 -0.132997,0.12383 v 1.54093 z"
         style="font-style:normal;font-variant:normal;font-weight:bold;font-stretch:normal;font-size:4.58611107px;font-family:Seravek;-inkscape-font-specification:'Seravek Bold';stroke-width:0.26458332;fill:#ffffff"
         id="path7127" />
      <path
         d="m 83.581658,292.27249 h -0.701675 v -0.28434 q -0.105481,0.15134 -0.275167,0.24307 -0.1651,0.0871 -0.398992,0.0871 -0.18803,0 -0.35313,-0.078 -0.1651,-0.0825 -0.288925,-0.22931 -0.119239,-0.15134 -0.188031,-0.3623 -0.06879,-0.21096 -0.06879,-0.47237 0,-0.29351 0.09172,-0.51823 0.09631,-0.22472 0.252236,-0.37606 0.160514,-0.15134 0.371475,-0.22472 0.210961,-0.078 0.449439,-0.078 0.119239,0 0.210961,0.0183 0.09172,0.0138 0.1651,0.0367 v -0.99977 h 0.733778 z m -1.109839,-0.51823 q 0.233891,0 0.376061,-0.15593 v -1.03187 q -0.100895,-0.0367 -0.261408,-0.0367 -0.275167,0 -0.41275,0.16969 -0.132998,0.16968 -0.132998,0.46319 0,0.26141 0.100895,0.42651 0.10548,0.1651 0.3302,0.1651 z"
         style="font-style:normal;font-variant:normal;font-weight:bold;font-stretch:normal;font-size:4.58611107px;font-family:Seravek;-inkscape-font-specification:'Seravek Bold';stroke-width:0.26458332;fill:#ffffff"
         id="path7129" />
      <path
         d="m 85.732472,291.53871 q 0,0.18803 -0.07338,0.33479 -0.06879,0.14676 -0.201789,0.24765 -0.128411,0.0963 -0.307269,0.14676 -0.178859,0.0504 -0.394406,0.0504 -0.183444,0 -0.385233,-0.0367 -0.201789,-0.0321 -0.366889,-0.10089 l 0.100894,-0.50906 q 0.14217,0.0596 0.311856,0.0917 0.174272,0.0275 0.302683,0.0275 0.132997,0 0.229306,-0.0367 0.100894,-0.0413 0.100894,-0.133 0,-0.0826 -0.08714,-0.11465 -0.08714,-0.0367 -0.261408,-0.10089 -0.14217,-0.0504 -0.265995,-0.11007 -0.123825,-0.0642 -0.215547,-0.14676 -0.08714,-0.0871 -0.137583,-0.1972 -0.05045,-0.11007 -0.05045,-0.25682 0,-0.36689 0.24765,-0.54116 0.24765,-0.17427 0.646641,-0.17427 0.210961,0 0.385234,0.0413 0.174272,0.0367 0.334786,0.12841 l -0.100895,0.48154 q -0.123825,-0.055 -0.261408,-0.0871 -0.137583,-0.0367 -0.288925,-0.0367 -0.132997,0 -0.206375,0.0275 -0.06879,0.0229 -0.06879,0.10089 0,0.078 0.08255,0.11465 0.08714,0.0321 0.220134,0.0825 0.100894,0.0367 0.224719,0.0917 0.123825,0.0505 0.229306,0.133 0.110066,0.0826 0.183444,0.20179 0.07338,0.11465 0.07338,0.27975 z"
         style="font-style:normal;font-variant:normal;font-weight:bold;font-stretch:normal;font-size:4.58611107px;font-family:Seravek;-inkscape-font-specification:'Seravek Bold';stroke-width:0.26458332;fill:#ffffff"
         id="path7131" />
    </g>
    <text
       xml:space="preserve"
       style="font-style:normal;font-weight:normal;font-size:5.64444447px;line-height:1.25;font-family:sans-serif;letter-spacing:0px;word-spacing:0px;fill:#000000;fill-opacity:1;stroke:none;stroke-width:0.26458332"
       x="-37.533035"
       y="298.73868"
       id="text7329"><tspan
         sodipodi:role="line"
         id="tspan7327"
         x="-37.533035"
         y="298.73868"
         style="stroke-width:0.26458332">=</tspan></text>
    <text
       xml:space="preserve"
       style="font-style:normal;font-weight:normal;font-size:5.64444447px;line-height:1.25;font-family:sans-serif;letter-spacing:0px;word-spacing:0px;fill:#000000;fill-opacity:1;stroke:none;stroke-width:0.26458332"
       x="137.09195"
       y="145.28035"
       id="text7333"><tspan
         sodipodi:role="line"
         id="tspan7331"
         x="137.09195"
         y="150.27435"
         style="stroke-width:0.26458332" /></text>
    <g
       id="g11158"
       style="font-style:normal;font-weight:normal;font-size:2.11666656px;line-height:1.25;font-family:sans-serif;letter-spacing:0px;word-spacing:0px;fill:#000000;fill-opacity:1;stroke:none;stroke-width:0.26458332"
       aria-label="cv"
       transform="translate(0,-5.2916667)">
      <path
         id="path11154"
         style="font-size:2.11666656px;stroke-width:0.26458332"
         d="m 0.5266879,284.10021 v 0.17776 q -0.0806152,-0.0444 -0.16226399,-0.0661 -0.0806152,-0.0227 -0.16329751,-0.0227 -0.18500162,0 -0.28732095,0.11782 -0.10231933,0.11679 -0.10231933,0.32867 0,0.21187 0.10231933,0.32969 0.10231933,0.11679 0.28732095,0.11679 0.0826823,0 0.16329751,-0.0217 0.0816488,-0.0227 0.16226399,-0.0672 v 0.1757 q -0.0795817,0.0372 -0.16536457,0.0558 -0.0847494,0.0186 -0.18086751,0.0186 -0.26148273,0 -0.41547849,-0.16433 -0.15399576,-0.16433 -0.15399576,-0.44338 0,-0.28319 0.15502929,-0.44546 0.15606282,-0.16226 0.42684731,-0.16226 0.0878499,0 0.17156574,0.0186 0.0837158,0.0176 0.16226399,0.0537 z"
         inkscape:connector-curvature="0" />
      <path
         id="path11156"
         style="font-size:2.11666656px;stroke-width:0.26458332"
         d="M 0.72305832,284.05577 H 0.9245964 l 0.361735,0.97151 0.361735,-0.97151 h 0.2015381 l -0.434082,1.15755 H 1.1571403 Z"
         inkscape:connector-curvature="0" />
    </g>
    <g
       id="g11164"
       style="font-style:normal;font-weight:normal;font-size:2.11666656px;line-height:1.25;font-family:sans-serif;letter-spacing:0px;word-spacing:0px;fill:#000000;fill-opacity:1;stroke:none;stroke-width:0.26458332"
       aria-label="In"
       transform="translate(0,-5.2916667)">
      <path
         id="path11160"
         style="font-size:2.11666656px;stroke-width:0.26458332"
         d="m 0.27140634,288.96192 h 0.20877278 v 1.54305 H 0.27140634 Z"
         inkscape:connector-curvature="0" />
      <path
         id="path11162"
         style="font-size:2.11666656px;stroke-width:0.26458332"
         d="m 1.8496045,289.80631 v 0.69866 H 1.6594352 v -0.69246 q 0,-0.16433 -0.064079,-0.24598 -0.064079,-0.0817 -0.1922363,-0.0817 -0.1539957,0 -0.2428792,0.0982 -0.088883,0.0982 -0.088883,0.26768 v 0.65422 H 0.88015466 v -1.15755 H 1.0713575 v 0.17984 q 0.068213,-0.10439 0.1601969,-0.15607 0.093018,-0.0517 0.2139404,-0.0517 0.199471,0 0.3017903,0.12402 0.1023194,0.12299 0.1023194,0.36277 z"
         inkscape:connector-curvature="0" />
    </g>
  </g>
</svg>
